<svg xmlns="http://www.w3.org/2000/svg" xmlns:xlink="http://www.w3.org/1999/xlink" contentStyleType="text/css" height="1097.6px" preserveAspectRatio="none" style="width:1151px;height:1097px;background:#FFFFFF;" version="1.1" viewBox="0 0 1151 1097" width="1151.5px" zoomAndPan="magnify"><defs/><g><!--cluster System--><g id="cluster_System"><rect fill="none" height="416.5" rx="1.75" ry="1.75" style="stroke:#181818;stroke-width:0.6999999999999998;" width="996.8" x="150.5" y="311.017"/><text fill="#000000" font-family="sans-serif" font-size="9.8" font-weight="bold" lengthAdjust="spacing" textLength="35.5151" x="631.1425" y="322.8932">System</text></g><!--cluster External Services--><g id="cluster_External Services"><rect fill="none" height="169.4" rx="1.75" ry="1.75" style="stroke:#181818;stroke-width:0.6999999999999998;" width="119.7" x="1019.2" y="744.317"/><text fill="#000000" font-family="sans-serif" font-size="9.8" font-weight="bold" lengthAdjust="spacing" textLength="83.4467" x="1037.3267" y="756.1932">External Services</text></g><!--entity UMS--><g id="elem_UMS"><rect fill="#F1F1F1" height="27.3475" rx="1.75" ry="1.75" style="stroke:#181818;stroke-width:0.3499999999999999;" width="135.0001" x="161.7" y="405.167"/><text fill="#000000" font-family="sans-serif" font-size="9.8" lengthAdjust="spacing" textLength="121.0001" x="168.7" y="422.6432">User Management Service</text></g><!--entity FS--><g id="elem_FS"><rect fill="#F1F1F1" height="27.3475" rx="1.75" ry="1.75" style="stroke:#181818;stroke-width:0.3499999999999999;" width="88.4013" x="185.15" y="456.967"/><text fill="#000000" font-family="sans-serif" font-size="9.8" lengthAdjust="spacing" textLength="74.4013" x="192.15" y="474.4432">Facilities Service</text></g><!--entity BSS--><g id="elem_BSS"><rect fill="#F1F1F1" height="27.3475" rx="1.75" ry="1.75" style="stroke:#181818;stroke-width:0.3499999999999999;" width="150.4742" x="434" y="636.867"/><text fill="#000000" font-family="sans-serif" font-size="9.8" lengthAdjust="spacing" textLength="136.4742" x="441" y="654.3432">Booking &amp; Scheduling Service</text></g><!--entity LANS--><g id="elem_LANS"><rect fill="#F1F1F1" height="27.3475" rx="1.75" ry="1.75" style="stroke:#181818;stroke-width:0.3499999999999999;" width="162.4204" x="726.6" y="575.967"/><text fill="#000000" font-family="sans-serif" font-size="9.8" lengthAdjust="spacing" textLength="148.4204" x="733.6" y="593.4432">Live Alerts &amp; Notification Service</text></g><!--entity PS--><g id="elem_PS"><rect fill="#F1F1F1" height="27.3475" rx="1.75" ry="1.75" style="stroke:#181818;stroke-width:0.3499999999999999;" width="94.6439" x="760.55" y="517.867"/><text fill="#000000" font-family="sans-serif" font-size="9.8" lengthAdjust="spacing" textLength="80.6439" x="767.55" y="535.3432">Payments Service</text></g><!--entity HSS--><g id="elem_HSS"><rect fill="#F1F1F1" height="27.3475" rx="1.75" ry="1.75" style="stroke:#181818;stroke-width:0.3499999999999999;" width="119.8592" x="449.4" y="688.667"/><text fill="#000000" font-family="sans-serif" font-size="9.8" lengthAdjust="spacing" textLength="105.8592" x="456.4" y="706.1432">Help &amp; Support Service</text></g><!--entity RS--><g id="elem_RS"><rect fill="#F1F1F1" height="27.3475" rx="1.75" ry="1.75" style="stroke:#181818;stroke-width:0.3499999999999999;" width="83.6777" x="187.25" y="353.367"/><text fill="#000000" font-family="sans-serif" font-size="9.8" lengthAdjust="spacing" textLength="69.6777" x="194.25" y="370.8432">Ratings Service</text></g><!--entity LS--><g id="elem_LS"><rect fill="#F1F1F1" height="27.3475" rx="1.75" ry="1.75" style="stroke:#181818;stroke-width:0.3499999999999999;" width="88.5581" x="763.35" y="688.667"/><text fill="#000000" font-family="sans-serif" font-size="9.8" lengthAdjust="spacing" textLength="74.5581" x="770.35" y="706.1432">Location Service</text></g><!--entity AS--><g id="elem_AS"><rect fill="#F1F1F1" height="27.3475" rx="1.75" ry="1.75" style="stroke:#181818;stroke-width:0.3499999999999999;" width="79.2775" x="189.7" y="508.767"/><text fill="#000000" font-family="sans-serif" font-size="9.8" lengthAdjust="spacing" textLength="65.2775" x="196.7" y="526.2432">Admin Service</text></g><!--entity DB_User--><g id="elem_DB_User"><path d="M468.65,402.717 C468.65,395.717 509.357,395.717 509.357,395.717 C509.357,395.717 550.064,395.717 550.064,402.717 L550.064,422.3645 C550.064,429.3645 509.357,429.3645 509.357,429.3645 C509.357,429.3645 468.65,429.3645 468.65,422.3645 L468.65,402.717 " fill="#F1F1F1" style="stroke:#181818;stroke-width:0.3499999999999999;"/><path d="M468.65,402.717 C468.65,409.717 509.357,409.717 509.357,409.717 C509.357,409.717 550.064,409.717 550.064,402.717 " fill="none" style="stroke:#181818;stroke-width:0.3499999999999999;"/><text fill="#000000" font-family="sans-serif" font-size="9.8" lengthAdjust="spacing" textLength="67.414" x="475.65" y="422.9932">User Database</text></g><!--entity DB_Facilities--><g id="elem_DB_Facilities"><path d="M444.15,460.817 C444.15,453.817 509.3667,453.817 509.3667,453.817 C509.3667,453.817 574.5834,453.817 574.5834,460.817 L574.5834,480.4645 C574.5834,487.4645 509.3667,487.4645 509.3667,487.4645 C509.3667,487.4645 444.15,487.4645 444.15,480.4645 L444.15,460.817 " fill="#F1F1F1" style="stroke:#181818;stroke-width:0.3499999999999999;"/><path d="M444.15,460.817 C444.15,467.817 509.3667,467.817 509.3667,467.817 C509.3667,467.817 574.5834,467.817 574.5834,460.817 " fill="none" style="stroke:#181818;stroke-width:0.3499999999999999;"/><text fill="#000000" font-family="sans-serif" font-size="9.8" lengthAdjust="spacing" textLength="116.4334" x="451.15" y="481.0932">Service Catalog Database</text></g><!--entity DB_Orders--><g id="elem_DB_Orders"><path d="M764.05,637.217 C764.05,630.217 807.6921,630.217 807.6921,630.217 C807.6921,630.217 851.3341,630.217 851.3341,637.217 L851.3341,656.8645 C851.3341,663.8645 807.6921,663.8645 807.6921,663.8645 C807.6921,663.8645 764.05,663.8645 764.05,656.8645 L764.05,637.217 " fill="#F1F1F1" style="stroke:#181818;stroke-width:0.3499999999999999;"/><path d="M764.05,637.217 C764.05,644.217 807.6921,644.217 807.6921,644.217 C807.6921,644.217 851.3341,644.217 851.3341,637.217 " fill="none" style="stroke:#181818;stroke-width:0.3499999999999999;"/><text fill="#000000" font-family="sans-serif" font-size="9.8" lengthAdjust="spacing" textLength="73.2841" x="771.05" y="657.4932">Order Database</text></g><!--entity DB_Transactions--><g id="elem_DB_Transactions"><path d="M1022,521.717 C1022,514.717 1078.9896,514.717 1078.9896,514.717 C1078.9896,514.717 1135.9792,514.717 1135.9792,521.717 L1135.9792,541.3645 C1135.9792,548.3645 1078.9896,548.3645 1078.9896,548.3645 C1078.9896,548.3645 1022,548.3645 1022,541.3645 L1022,521.717 " fill="#F1F1F1" style="stroke:#181818;stroke-width:0.3499999999999999;"/><path d="M1022,521.717 C1022,528.717 1078.9896,528.717 1078.9896,528.717 C1078.9896,528.717 1135.9792,528.717 1135.9792,521.717 " fill="none" style="stroke:#181818;stroke-width:0.3499999999999999;"/><text fill="#000000" font-family="sans-serif" font-size="9.8" lengthAdjust="spacing" textLength="99.9792" x="1029" y="541.9932">Transaction Database</text></g><!--entity DB_Ratings--><g id="elem_DB_Ratings"><path d="M462,344.617 C462,337.617 509.2093,337.617 509.2093,337.617 C509.2093,337.617 556.4185,337.617 556.4185,344.617 L556.4185,364.2645 C556.4185,371.2645 509.2093,371.2645 509.2093,371.2645 C509.2093,371.2645 462,371.2645 462,364.2645 L462,344.617 " fill="#F1F1F1" style="stroke:#181818;stroke-width:0.3499999999999999;"/><path d="M462,344.617 C462,351.617 509.2093,351.617 509.2093,351.617 C509.2093,351.617 556.4185,351.617 556.4185,344.617 " fill="none" style="stroke:#181818;stroke-width:0.3499999999999999;"/><text fill="#000000" font-family="sans-serif" font-size="9.8" lengthAdjust="spacing" textLength="80.4185" x="469" y="364.8932">Ratings Database</text></g><!--entity Kafka--><g id="elem_Kafka"><path d="M212.8,560.567 L245.4661,560.567 C248.9661,560.567 248.9661,570.7408 248.9661,570.7408 C248.9661,570.7408 248.9661,580.9145 245.4661,580.9145 L212.8,580.9145 C209.3,580.9145 209.3,570.7408 209.3,570.7408 C209.3,570.7408 209.3,560.567 212.8,560.567 " fill="#F1F1F1" style="stroke:#181818;stroke-width:0.3499999999999999;"/><path d="M245.4661,560.567 C241.9661,560.567 241.9661,570.7408 241.9661,570.7408 C241.9661,580.9145 245.4661,580.9145 245.4661,580.9145 " fill="none" style="stroke:#181818;stroke-width:0.3499999999999999;"/><text fill="#000000" font-family="sans-serif" font-size="9.8" lengthAdjust="spacing" textLength="25.6661" x="212.8" y="574.5432">Kafka</text></g><!--entity PG--><g id="elem_PG"><rect fill="#F1F1F1" height="27.3475" rx="1.75" ry="1.75" style="stroke:#181818;stroke-width:0.3499999999999999;" width="97.1527" x="1030.4" y="771.267"/><text fill="#000000" font-family="sans-serif" font-size="9.8" lengthAdjust="spacing" textLength="83.1527" x="1037.4" y="788.7432">Payment Gateway</text></g><!--entity FCM--><g id="elem_FCM"><rect fill="#F1F1F1" height="27.3475" rx="1.75" ry="1.75" style="stroke:#181818;stroke-width:0.3499999999999999;" width="81.5315" x="1038.45" y="823.067"/><text fill="#000000" font-family="sans-serif" font-size="9.8" lengthAdjust="spacing" textLength="67.5315" x="1045.45" y="840.5432">Firebase (FCM)</text></g><!--entity GMA--><g id="elem_GMA"><rect fill="#F1F1F1" height="27.3475" rx="1.75" ry="1.75" style="stroke:#181818;stroke-width:0.3499999999999999;" width="92.7917" x="1032.5" y="874.867"/><text fill="#000000" font-family="sans-serif" font-size="9.8" lengthAdjust="spacing" textLength="78.7917" x="1039.5" y="892.3432">Google Maps API</text></g><!--entity Client--><g id="elem_Client"><ellipse cx="20.8858" cy="89.817" fill="#F1F1F1" rx="5.6" ry="5.6" style="stroke:#181818;stroke-width:0.3499999999999999;"/><path d="M20.8858,95.417 L20.8858,114.317 M11.7858,101.017 L29.9858,101.017 M20.8858,114.317 L11.7858,124.817 M20.8858,114.317 L29.9858,124.817 " fill="none" style="stroke:#181818;stroke-width:0.3499999999999999;"/><text fill="#000000" font-family="sans-serif" font-size="9.8" lengthAdjust="spacing" textLength="26.3717" x="7.7" y="136.3432">Client</text></g><!--entity Agency--><g id="elem_Agency"><ellipse cx="20.9873" cy="423.017" fill="#F1F1F1" rx="5.6" ry="5.6" style="stroke:#181818;stroke-width:0.3499999999999999;"/><path d="M20.9873,428.617 L20.9873,447.517 M11.8873,434.217 L30.0873,434.217 M20.9873,447.517 L11.8873,458.017 M20.9873,447.517 L30.0873,458.017 " fill="none" style="stroke:#181818;stroke-width:0.3499999999999999;"/><text fill="#000000" font-family="sans-serif" font-size="9.8" lengthAdjust="spacing" textLength="33.5747" x="4.2" y="469.5432">Agency</text></g><!--entity Leader--><g id="elem_Leader"><ellipse cx="21.1308" cy="229.817" fill="#F1F1F1" rx="5.6" ry="5.6" style="stroke:#181818;stroke-width:0.3499999999999999;"/><path d="M21.1308,235.417 L21.1308,254.317 M12.0308,241.017 L30.2308,241.017 M21.1308,254.317 L12.0308,264.817 M21.1308,254.317 L30.2308,264.817 " fill="none" style="stroke:#181818;stroke-width:0.3499999999999999;"/><text fill="#000000" font-family="sans-serif" font-size="9.8" lengthAdjust="spacing" textLength="31.7617" x="5.25" y="276.3432">Leader</text></g><!--entity Agent--><g id="elem_Agent"><ellipse cx="21.0552" cy="721.917" fill="#F1F1F1" rx="5.6" ry="5.6" style="stroke:#181818;stroke-width:0.3499999999999999;"/><path d="M21.0552,727.517 L21.0552,746.417 M11.9552,733.117 L30.1552,733.117 M21.0552,746.417 L11.9552,756.917 M21.0552,746.417 L30.1552,756.917 " fill="none" style="stroke:#181818;stroke-width:0.3499999999999999;"/><text fill="#000000" font-family="sans-serif" font-size="9.8" lengthAdjust="spacing" textLength="27.4105" x="7.35" y="768.4432">Agent</text></g><!--entity Admin--><g id="elem_Admin"><ellipse cx="20.9684" cy="861.917" fill="#F1F1F1" rx="5.6" ry="5.6" style="stroke:#181818;stroke-width:0.3499999999999999;"/><path d="M20.9684,867.517 L20.9684,886.417 M11.8684,873.117 L30.0684,873.117 M20.9684,886.417 L11.8684,896.917 M20.9684,886.417 L30.0684,896.917 " fill="none" style="stroke:#181818;stroke-width:0.3499999999999999;"/><text fill="#000000" font-family="sans-serif" font-size="9.8" lengthAdjust="spacing" textLength="30.0369" x="5.95" y="908.4432">Admin</text></g><!--link Client to UMS--><g id="link_Client_UMS"><path d="M23.009,139.23 C25.718,168.735 33.964,215.404 58.8,246.617 C84.112,278.418 117.523,255.696 139.3,290.017 C151.571,309.351 130.816,374.857 144.9,392.917 C149.387,398.671 151.4572,401.1489 157.8342,404.6699 " fill="none" id="Client-to-UMS" style="stroke:#181818;stroke-width:0.6999999999999998;"/><polygon fill="#181818" points="161.511,406.7,157.3492,401.2037,158.447,405.0083,154.6424,406.106,161.511,406.7" style="stroke:#181818;stroke-width:0.6999999999999998;"/><text fill="#000000" font-family="sans-serif" font-size="9.1" lengthAdjust="spacing" textLength="57.0116" x="70.7" y="243.7449">Login/Signup</text></g><!--link Client to BSS--><g id="link_Client_BSS"><path d="M34.503,110.565 C74.081,107.933 197.722,102.102 296.8,123.417 C306.628,125.531 308.343,128.401 317.8,131.817 C359.625,146.93 385.966,127.309 413,162.617 C441.882,200.333 412.594,547.211 434,589.617 C444.43,610.281 461.8147,624.2132 478.8667,634.6712 " fill="none" id="Client-to-BSS" style="stroke:#181818;stroke-width:0.6999999999999998;"/><polygon fill="#181818" points="482.447,636.867,478.5404,631.1864,479.4634,635.0372,475.6127,635.9602,482.447,636.867" style="stroke:#181818;stroke-width:0.6999999999999998;"/><text fill="#000000" font-family="sans-serif" font-size="9.1" lengthAdjust="spacing" textLength="55.8831" x="201.6" y="105.8449">Create Order</text></g><!--link Client to LANS--><g id="link_Client_LANS"><path d="M34.468,90.671 C40.691,82.488 48.972,73.997 58.8,69.517 C202.083,4.2 272.629,6.559 413,77.917 C592.256,169.043 622.58,239.869 705.6,423.017 C730.562,478.079 688.933,510.125 726.6,557.417 C732.928,565.362 737.7451,569.5137 746.9641,574.0287 " fill="none" id="Client-to-LANS" style="stroke:#181818;stroke-width:0.6999999999999998;"/><polygon fill="#181818" points="750.736,575.876,746.3096,570.5904,747.5927,574.3366,743.8466,575.6197,750.736,575.876" style="stroke:#181818;stroke-width:0.6999999999999998;"/><text fill="#000000" font-family="sans-serif" font-size="9.1" lengthAdjust="spacing" textLength="88.8889" x="321.3" y="35.1449">Receive Notifications</text></g><!--link Client to PS--><g id="link_Client_PS"><path d="M34.384,102.2 C41.244,97.734 50.078,92.855 58.8,90.517 C85.421,83.391 262.941,79.856 296.8,89.817 C504.112,150.78 557.06,196.077 705.6,353.017 C754.978,405.188 787.9835,481.9078 800.4435,513.8698 " fill="none" id="Client-to-PS" style="stroke:#181818;stroke-width:0.6999999999999998;"/><polygon fill="#181818" points="801.969,517.783,802.2895,510.8963,800.6978,514.522,797.072,512.9303,801.969,517.783" style="stroke:#181818;stroke-width:0.6999999999999998;"/><text fill="#000000" font-family="sans-serif" font-size="9.1" lengthAdjust="spacing" textLength="63.518" x="333.9" y="93.9449">Make Payment</text></g><!--link Client to HSS--><g id="link_Client_HSS"><path d="M34.405,114.996 C56.679,121.016 104.265,133.595 144.9,142.317 C211.967,156.709 236.25,137.396 296.8,169.617 C362.257,204.449 383.285,221.389 413,289.317 C447.531,368.242 382.186,607.593 434,676.417 C438.081,681.835 439.7287,684.0259 445.6087,687.4209 " fill="none" id="Client-to-HSS" style="stroke:#181818;stroke-width:0.6999999999999998;"/><polygon fill="#181818" points="449.246,689.521,445.1902,683.946,446.215,687.7709,442.3901,688.7957,449.246,689.521" style="stroke:#181818;stroke-width:0.6999999999999998;"/><text fill="#000000" font-family="sans-serif" font-size="9.1" lengthAdjust="spacing" textLength="50.0227" x="204.4" y="139.4449">Raise Ticket</text></g><!--link Client to RS--><g id="link_Client_RS"><path d="M34.335,138.453 C40.635,150.15 49.014,163.499 58.8,173.817 C88.431,205.058 109.165,196.966 139.3,227.717 C149.527,238.154 197.7039,316.434 217.9339,349.579 " fill="none" id="Client-to-RS" style="stroke:#181818;stroke-width:0.6999999999999998;"/><polygon fill="#181818" points="220.122,353.164,219.2299,346.3278,218.2986,350.1765,214.4499,349.2452,220.122,353.164" style="stroke:#181818;stroke-width:0.6999999999999998;"/><text fill="#000000" font-family="sans-serif" font-size="9.1" lengthAdjust="spacing" textLength="64.7011" x="66.85" y="170.9449">Submit Ratings</text></g><!--link Agency to UMS--><g id="link_Agency_UMS"><path d="M37.828,437.465 C44.226,434.896 51.737,432.264 58.8,430.717 C92.204,423.409 125.9122,420.4381 157.4122,419.1991 " fill="none" id="Agency-to-UMS" style="stroke:#181818;stroke-width:0.6999999999999998;"/><polygon fill="#181818" points="161.609,419.034,155.2038,416.4838,158.1117,419.1716,155.4239,422.0794,161.609,419.034" style="stroke:#181818;stroke-width:0.6999999999999998;"/><text fill="#000000" font-family="sans-serif" font-size="9.1" lengthAdjust="spacing" textLength="62.4989" x="67.9" y="418.0449">Register/Login</text></g><!--link Agency to FS--><g id="link_Agency_FS"><path d="M37.856,470.862 C43.554,477.764 50.61,484.344 58.8,488.117 C102.123,508.074 154.1054,497.3186 189.6794,485.6146 " fill="none" id="Agency-to-FS" style="stroke:#181818;stroke-width:0.6999999999999998;"/><polygon fill="#181818" points="193.669,484.302,186.8095,483.6112,190.3443,485.3958,188.5596,488.9307,193.669,484.302" style="stroke:#181818;stroke-width:0.6999999999999998;"/><text fill="#000000" font-family="sans-serif" font-size="9.1" lengthAdjust="spacing" textLength="63.9731" x="67.2" y="485.2449">Opt-in Services</text></g><!--link Agency to BSS--><g id="link_Agency_BSS"><path d="M34.153,472.577 C52.507,510.034 90.622,575.491 144.9,606.417 C234.486,657.454 352.2592,661.7448 429.6582,657.8738 " fill="none" id="Agency-to-BSS" style="stroke:#181818;stroke-width:0.6999999999999998;"/><polygon fill="#181818" points="433.853,657.664,427.421,655.1822,430.3574,657.8388,427.7007,660.7752,433.853,657.664" style="stroke:#181818;stroke-width:0.6999999999999998;"/><text fill="#000000" font-family="sans-serif" font-size="9.1" lengthAdjust="spacing" textLength="60.6425" x="199.15" y="603.5449">Accept Orders</text></g><!--link Agency to LANS--><g id="link_Agency_LANS"><path d="M25.025,416.759 C30.156,378.658 41.279,313.362 58.8,297.717 C88.298,271.376 374.052,255.864 413,262.717 C492.87,276.773 521.71,273.693 584.5,325.017 C607.936,344.169 703.472,537.887 726.6,557.417 C735.798,565.187 743.2321,569.6289 754.4391,574.2909 " fill="none" id="Agency-to-LANS" style="stroke:#181818;stroke-width:0.6999999999999998;"/><polygon fill="#181818" points="758.317,575.904,753.5757,570.899,755.0855,574.5597,751.4248,576.0695,758.317,575.904" style="stroke:#181818;stroke-width:0.6999999999999998;"/><text fill="#000000" font-family="sans-serif" font-size="9.1" lengthAdjust="spacing" textLength="59.4594" x="336" y="258.4449">Receive Alerts</text></g><!--link Agency to HSS--><g id="link_Agency_HSS"><path d="M22.288,472.647 C24.241,507.045 31.668,566.055 58.8,607.817 C84.833,647.892 100.219,655.277 144.9,672.217 C246.638,710.787 371.3489,711.3745 445.1779,707.4405 " fill="none" id="Agency-to-HSS" style="stroke:#181818;stroke-width:0.6999999999999998;"/><polygon fill="#181818" points="449.372,707.217,442.9319,704.7562,445.877,707.4032,443.2299,710.3483,449.372,707.217" style="stroke:#181818;stroke-width:0.6999999999999998;"/><text fill="#000000" font-family="sans-serif" font-size="9.1" lengthAdjust="spacing" textLength="62.0438" x="198.45" y="669.3449">Resolve Issues</text></g><!--link Agency to PS--><g id="link_Agency_PS"><path d="M37.94,423.906 C59.269,398.51 99.386,356.993 144.9,341.117 C329.497,276.724 402.5,253.596 584.5,325.017 C687.547,365.456 768.9586,475.0348 795.7406,514.3538 " fill="none" id="Agency-to-PS" style="stroke:#181818;stroke-width:0.6999999999999998;"/><polygon fill="#181818" points="798.105,517.825,796.8725,511.0419,796.1346,514.9323,792.2442,514.1944,798.105,517.825" style="stroke:#181818;stroke-width:0.6999999999999998;"/><text fill="#000000" font-family="sans-serif" font-size="9.1" lengthAdjust="spacing" textLength="49.14" x="340.9" y="278.7449">View Wallet</text></g><!--link Leader to UMS--><g id="link_Leader_UMS"><path d="M36.911,276.234 C57.568,307.79 97.426,362.005 144.9,392.917 C152.418,397.81 156.9827,400.3365 165.6067,403.6125 " fill="none" id="Leader-to-UMS" style="stroke:#181818;stroke-width:0.6999999999999998;"/><polygon fill="#181818" points="169.533,405.104,164.6379,400.2493,166.2611,403.8611,162.6493,405.4843,169.533,405.104" style="stroke:#181818;stroke-width:0.6999999999999998;"/><text fill="#000000" font-family="sans-serif" font-size="9.1" lengthAdjust="spacing" textLength="23.842" x="87.15" y="306.0449">Login</text></g><!--link Leader to BSS--><g id="link_Leader_BSS"><path d="M30.135,223.573 C35.861,209.797 44.968,194.453 58.8,186.417 C89.733,168.441 104.097,180.019 139.3,186.417 C267.162,209.657 335.335,185.115 413,289.317 C452.977,342.951 403.235,530.215 434,589.617 C444.647,610.169 462.017,624.105 479.006,634.591 " fill="none" id="Leader-to-BSS" style="stroke:#181818;stroke-width:0.6999999999999998;"/><polygon fill="#181818" points="482.58,636.797,478.6896,631.1054,479.6016,634.9587,475.7483,635.8707,482.58,636.797" style="stroke:#181818;stroke-width:0.6999999999999998;"/><text fill="#000000" font-family="sans-serif" font-size="9.1" lengthAdjust="spacing" textLength="60.2785" x="199.15" y="185.6449">Assign Agents</text></g><!--link Agent to UMS--><g id="link_Agent_UMS"><path d="M21.749,715.925 C22.442,654.206 27.426,507.962 58.8,472.017 C83.223,444.038 106.624,467.264 139.3,449.617 C142.212,448.042 142.016,446.327 144.9,444.717 C153.524,439.894 159.1978,437.2395 168.7808,433.8935 " fill="none" id="Agent-to-UMS" style="stroke:#181818;stroke-width:0.6999999999999998;"/><polygon fill="#181818" points="172.746,432.509,165.8751,431.9423,169.4416,433.6628,167.7211,437.2293,172.746,432.509" style="stroke:#181818;stroke-width:0.6999999999999998;"/><text fill="#000000" font-family="sans-serif" font-size="9.1" lengthAdjust="spacing" textLength="23.842" x="87.15" y="446.7449">Login</text></g><!--link Agent to BSS--><g id="link_Agent_BSS"><path d="M34.762,743.96 C74.557,744.73 197.638,745.185 296.8,724.717 C360.108,711.648 372.981,697.76 434,676.417 C445.382,672.434 453.7763,669.5063 465.1093,665.5723 " fill="none" id="Agent-to-BSS" style="stroke:#181818;stroke-width:0.6999999999999998;"/><polygon fill="#181818" points="469.077,664.195,462.2072,663.6158,465.7705,665.3428,464.0436,668.9061,469.077,664.195" style="stroke:#181818;stroke-width:0.6999999999999998;"/><text fill="#000000" font-family="sans-serif" font-size="9.1" lengthAdjust="spacing" textLength="52.1703" x="203.35" y="721.8449">View Orders</text></g><!--link Agent to LANS--><g id="link_Agent_LANS"><path d="M34.678,746.368 C41.769,747.74 50.729,749.238 58.8,749.917 C94.451,752.92 103.523,750.155 139.3,749.917 C337.4,748.594 389.599,763.686 584.5,728.217 C639.793,718.158 666.183,731.878 705.6,691.817 C729.638,667.387 703.087,642.558 726.6,617.617 C732.186,611.695 735.3216,608.8986 742.7136,605.2166 " fill="none" id="Agent-to-LANS" style="stroke:#181818;stroke-width:0.6999999999999998;"/><polygon fill="#181818" points="746.473,603.344,739.5854,603.6466,743.3401,604.9045,742.0822,608.6592,746.473,603.344" style="stroke:#181818;stroke-width:0.6999999999999998;"/><text fill="#000000" font-family="sans-serif" font-size="9.1" lengthAdjust="spacing" textLength="59.4594" x="336" y="747.7449">Receive Alerts</text></g><!--link Admin to UMS--><g id="link_Admin_UMS"><path d="M27.307,855.918 C33.824,824.999 45.402,773.612 58.8,730.317 C88.606,633.997 117.355,616.63 139.3,518.217 C142.863,502.229 134.687,457.52 144.9,444.717 C149.45,439.012 151.5507,436.5609 157.9487,433.0469 " fill="none" id="Admin-to-UMS" style="stroke:#181818;stroke-width:0.6999999999999998;"/><polygon fill="#181818" points="161.63,431.025,154.7601,431.6036,158.5623,432.7099,157.456,436.512,161.63,431.025" style="stroke:#181818;stroke-width:0.6999999999999998;"/><text fill="#000000" font-family="sans-serif" font-size="9.1" lengthAdjust="spacing" textLength="61.4432" x="68.6" y="515.3449">Manage Users</text></g><!--link Admin to FS--><g id="link_Admin_FS"><path d="M36.183,860.391 C42.714,850.444 50.757,838.873 58.8,829.017 C91.217,789.306 119.455,793.681 139.3,746.417 C144.676,733.614 136.535,507.598 144.9,496.517 C154.378,483.959 165.7748,478.2526 180.8598,474.8016 " fill="none" id="Admin-to-FS" style="stroke:#181818;stroke-width:0.6999999999999998;"/><polygon fill="#181818" points="184.954,473.865,178.1882,472.5405,181.5421,474.6455,179.4371,477.9994,184.954,473.865" style="stroke:#181818;stroke-width:0.6999999999999998;"/><text fill="#000000" font-family="sans-serif" font-size="9.1" lengthAdjust="spacing" textLength="79.5523" x="59.5" y="743.5449">Configure Services</text></g><!--link Admin to AS--><g id="link_Admin_AS"><path d="M36.099,878.297 C42.952,875.812 51.275,872.844 58.8,870.317 C94.339,858.389 116.816,875.119 139.3,845.117 C149.191,831.922 134.988,561.498 144.9,548.317 C155.316,534.464 168.9132,528.5948 185.3772,525.4798 " fill="none" id="Admin-to-AS" style="stroke:#181818;stroke-width:0.6999999999999998;"/><polygon fill="#181818" points="189.504,524.699,182.7933,523.119,186.065,525.3497,183.8343,528.6214,189.504,524.699" style="stroke:#181818;stroke-width:0.6999999999999998;"/><text fill="#000000" font-family="sans-serif" font-size="9.1" lengthAdjust="spacing" textLength="78.0599" x="60.2" y="842.2449">Access Dashboard</text></g><!--link Admin to BSS--><g id="link_Admin_BSS"><path d="M36.162,883.33 C58.702,882.532 103.355,879.515 139.3,868.217 C270.053,827.12 319.991,826.791 413,726.117 C429.275,708.505 416.5,692.811 434,676.417 C439.299,671.454 441.8251,669.2793 448.4891,666.0243 " fill="none" id="Admin-to-BSS" style="stroke:#181818;stroke-width:0.6999999999999998;"/><polygon fill="#181818" points="452.263,664.181,445.3733,664.4301,449.1181,665.7171,447.8311,669.4619,452.263,664.181" style="stroke:#181818;stroke-width:0.6999999999999998;"/><text fill="#000000" font-family="sans-serif" font-size="9.1" lengthAdjust="spacing" textLength="66.3573" x="196.35" y="814.2449">Monitor Orders</text></g><!--link Admin to PS--><g id="link_Admin_PS"><path d="M36.176,906.066 C42.308,914.088 50.071,922.579 58.8,928.417 C92.092,950.677 105.441,948.157 144.9,955.017 C262.346,975.429 302.015,1006.208 413,962.717 C578.004,898.058 621.698,847.917 705.6,691.817 C732.914,640.997 690.487,608.706 726.6,563.717 C735.126,553.091 743.7549,547.442 756.4319,542.654 " fill="none" id="Admin-to-PS" style="stroke:#181818;stroke-width:0.6999999999999998;"/><polygon fill="#181818" points="760.361,541.17,753.478,540.7766,757.0868,542.4067,755.4567,546.0154,760.361,541.17" style="stroke:#181818;stroke-width:0.6999999999999998;"/><text fill="#000000" font-family="sans-serif" font-size="9.1" lengthAdjust="spacing" textLength="79.5341" x="325.85" y="959.8449">Audit Transactions</text></g><!--link Admin to HSS--><g id="link_Admin_HSS"><path d="M36.106,892.584 C42.749,896.21 50.904,899.976 58.8,901.817 C212.1,937.615 279.853,986.503 413,902.517 C480.914,859.677 500.9983,757.9748 506.3323,720.1678 " fill="none" id="Admin-to-HSS" style="stroke:#181818;stroke-width:0.6999999999999998;"/><polygon fill="#181818" points="506.919,716.009,503.2663,721.8561,506.43,719.4747,508.8114,722.6384,506.919,716.009" style="stroke:#181818;stroke-width:0.6999999999999998;"/><text fill="#000000" font-family="sans-serif" font-size="9.1" lengthAdjust="spacing" textLength="66.5393" x="196" y="922.0449">Escalate Tickets</text></g><!--link Admin to LS--><g id="link_Admin_LS"><path d="M22.274,911.449 C24.479,938.245 32.375,977.578 58.8,997.717 C184.079,1093.19 257.138,1032.346 413,1009.617 C491.701,998.144 517.65,1001.602 584.5,958.517 C689.745,890.68 771.4994,762.5424 796.9724,719.7304 " fill="none" id="Admin-to-LS" style="stroke:#181818;stroke-width:0.6999999999999998;"/><polygon fill="#181818" points="799.12,716.121,793.4923,720.1034,797.3303,719.1288,798.3049,722.9668,799.12,716.121" style="stroke:#181818;stroke-width:0.6999999999999998;"/><text fill="#000000" font-family="sans-serif" font-size="9.1" lengthAdjust="spacing" textLength="94.0486" x="318.5" y="1006.7449">View Geofencing Data</text></g><!--link BSS to LS--><g id="link_BSS_LS"><path d="M580.622,664.167 C589.001,665.728 597.436,667.275 605.5,668.717 C659.729,678.398 718.1837,688.0254 759.0567,694.6264 " fill="none" id="BSS-to-LS" style="stroke:#181818;stroke-width:0.6999999999999998;"/><polygon fill="#181818" points="763.203,695.296,757.43,691.5274,759.7478,694.738,756.5372,697.0557,763.203,695.296" style="stroke:#181818;stroke-width:0.6999999999999998;"/><text fill="#000000" font-family="sans-serif" font-size="9.1" lengthAdjust="spacing" textLength="99.3539" x="606.2" y="665.8449">Fetch Geolocation Data</text></g><!--link BSS to PS--><g id="link_BSS_PS"><path d="M550.123,636.79 C561.827,631.764 574.217,625.366 584.5,617.617 C596.141,608.839 593.341,600.467 605.5,592.417 C652.988,560.987 713.1731,545.9778 756.2721,538.4808 " fill="none" id="BSS-to-PS" style="stroke:#181818;stroke-width:0.6999999999999998;"/><polygon fill="#181818" points="760.41,537.761,753.7234,536.0821,756.9618,538.3608,754.6831,541.5992,760.41,537.761" style="stroke:#181818;stroke-width:0.6999999999999998;"/><text fill="#000000" font-family="sans-serif" font-size="9.1" lengthAdjust="spacing" textLength="79.1519" x="616" y="547.5449">Confirm Payments</text></g><!--link BSS to LANS--><g id="link_BSS_LANS"><path d="M576.639,636.846 C625.492,626.836 687.4016,614.1484 736.2686,604.1314 " fill="none" id="BSS-to-LANS" style="stroke:#181818;stroke-width:0.6999999999999998;"/><polygon fill="#181818" points="740.383,603.288,733.6491,601.8101,736.9543,603.9908,734.7736,607.2961,740.383,603.288" style="stroke:#181818;stroke-width:0.6999999999999998;"/><text fill="#000000" font-family="sans-serif" font-size="9.1" lengthAdjust="spacing" textLength="82.5644" x="614.6" y="608.4449">Notify Order Status</text></g><!--link LANS to FCM--><g id="link_LANS_FCM"><path d="M870.359,603.358 C877.38,607.04 883.848,611.702 889,617.617 C920.262,653.499 885.878,681.59 910,722.617 C940.646,774.746 961.821,779.576 1013.6,810.817 C1021.272,815.444 1026.0409,817.9426 1034.4619,821.4566 " fill="none" id="LANS-to-FCM" style="stroke:#181818;stroke-width:0.6999999999999998;"/><polygon fill="#181818" points="1038.338,823.074,1033.6022,818.0638,1035.1079,821.7261,1031.4456,823.2319,1038.338,823.074" style="stroke:#181818;stroke-width:0.6999999999999998;"/><text fill="#000000" font-family="sans-serif" font-size="9.1" lengthAdjust="spacing" textLength="77.6049" x="917" y="719.7449">Push Notifications</text></g><!--link PS to PG--><g id="link_PS_PG"><path d="M854.777,545.237 C866.593,549.99 878.822,556.087 889,563.717 C953.547,612.087 955.276,640.073 1001,706.517 C1007.174,715.484 1006.649,719.145 1013.6,727.517 C1027.418,744.163 1042.8832,757.6373 1056.6522,768.5223 " fill="none" id="PS-to-PG" style="stroke:#181818;stroke-width:0.6999999999999998;"/><polygon fill="#181818" points="1059.947,771.127,1056.7413,765.0235,1057.2013,768.9564,1053.2684,769.4165,1059.947,771.127" style="stroke:#181818;stroke-width:0.6999999999999998;"/><text fill="#000000" font-family="sans-serif" font-size="9.1" lengthAdjust="spacing" textLength="89.8535" x="910.7" y="580.4449">Process Transactions</text></g><!--link LS to GMA--><g id="link_LS_GMA"><path d="M811.916,716.156 C821.1,750.113 849.814,837.536 910,875.217 C946.47,898.051 992.2603,899.4542 1028.2823,896.1712 " fill="none" id="LS-to-GMA" style="stroke:#181818;stroke-width:0.6999999999999998;"/><polygon fill="#181818" points="1032.465,895.79,1025.9369,893.5734,1028.9794,896.1077,1026.4451,899.1502,1032.465,895.79" style="stroke:#181818;stroke-width:0.6999999999999998;"/><text fill="#000000" font-family="sans-serif" font-size="9.1" lengthAdjust="spacing" textLength="83.256" x="914.2" y="872.3449">Retrieve Maps Data</text></g><!--link UMS to DB_User--><g id="link_UMS_DB_User"><path d="M296.856,417.305 C350.392,416.094 419.4761,414.5301 464.2761,413.5151 " fill="none" id="UMS-to-DB_User" style="stroke:#181818;stroke-width:0.6999999999999998;"/><polygon fill="#181818" points="468.475,413.42,462.1132,410.7634,464.9759,413.4993,462.24,416.362,468.475,413.42" style="stroke:#181818;stroke-width:0.6999999999999998;"/><text fill="#000000" font-family="sans-serif" font-size="9.1" lengthAdjust="spacing" textLength="67.4492" x="331.8" y="412.4449">Store User Data</text></g><!--link FS to DB_Facilities--><g id="link_FS_DB_Facilities"><path d="M273.483,470.617 C319.242,470.617 387.52,470.617 439.908,470.617 " fill="none" id="FS-to-DB_Facilities" style="stroke:#181818;stroke-width:0.6999999999999998;"/><polygon fill="#181818" points="444.108,470.617,437.808,467.817,440.608,470.617,437.808,473.417,444.108,470.617" style="stroke:#181818;stroke-width:0.6999999999999998;"/><text fill="#000000" font-family="sans-serif" font-size="9.1" lengthAdjust="spacing" textLength="71.8992" x="329.7" y="467.7449">Manage Services</text></g><!--link BSS to DB_Orders--><g id="link_BSS_DB_Orders"><path d="M584.507,649.768 C621.012,649.39 665.602,648.907 705.6,648.417 C724.717,648.179 741.6644,647.9507 759.6824,647.6987 " fill="none" id="BSS-to-DB_Orders" style="stroke:#181818;stroke-width:0.6999999999999998;"/><polygon fill="#181818" points="763.882,647.64,757.5435,644.9284,760.3823,647.6889,757.6218,650.5278,763.882,647.64" style="stroke:#181818;stroke-width:0.6999999999999998;"/><text fill="#000000" font-family="sans-serif" font-size="9.1" lengthAdjust="spacing" textLength="66.8942" x="622.3" y="645.5449">Manage Orders</text></g><!--link PS to DB_Transactions--><g id="link_PS_DB_Transactions"><path d="M855.197,531.517 C901.509,531.517 968.31,531.517 1017.744,531.517 " fill="none" id="PS-to-DB_Transactions" style="stroke:#181818;stroke-width:0.6999999999999998;"/><polygon fill="#181818" points="1021.944,531.517,1015.644,528.717,1018.444,531.517,1015.644,534.317,1021.944,531.517" style="stroke:#181818;stroke-width:0.6999999999999998;"/><text fill="#000000" font-family="sans-serif" font-size="9.1" lengthAdjust="spacing" textLength="72.7364" x="919.45" y="528.6449">Log Transactions</text></g><!--link RS to DB_Ratings--><g id="link_RS_DB_Ratings"><path d="M271.355,365.141 C322.287,362.838 404.3243,359.1287 457.5943,356.7207 " fill="none" id="RS-to-DB_Ratings" style="stroke:#181818;stroke-width:0.6999999999999998;"/><polygon fill="#181818" points="461.79,356.531,455.37,354.0183,458.2936,356.6891,455.6229,359.6126,461.79,356.531" style="stroke:#181818;stroke-width:0.6999999999999998;"/><text fill="#000000" font-family="sans-serif" font-size="9.1" lengthAdjust="spacing" textLength="65.5564" x="332.85" y="356.4449">Store Feedback</text></g><!--link Kafka to BSS--><g id="link_Kafka_BSS"><path d="M253.4953,569.4106 C288.2293,568.1576 358.435,569.38 413,596.617 C424.809,602.511 423.108,610.155 434,617.617 C445.088,625.212 454.3483,630.0565 466.4723,635.2155 " fill="none" id="Kafka-BSS" style="stroke:#181818;stroke-width:0.6999999999999998;"/><polygon fill="#181818" points="249.298,569.562,255.6948,572.1331,252.7957,569.4358,255.493,566.5367,249.298,569.562" style="stroke:#181818;stroke-width:0.6999999999999998;"/><polygon fill="#181818" points="470.337,636.86,465.6363,631.8168,467.1164,635.4896,463.4437,636.9697,470.337,636.86" style="stroke:#181818;stroke-width:0.6999999999999998;"/><text fill="#000000" font-family="sans-serif" font-size="9.1" lengthAdjust="spacing" textLength="54.7093" x="338.1" y="569.9449">Event Queue</text></g><!--link Kafka to LANS--><g id="link_Kafka_LANS"><path d="M253.4686,565.4376 C271.1856,561.6576 294.042,557.382 317.8,555.317 C359.954,551.649 372.365,543.529 413,555.317 C423.612,558.397 423.535,565.068 434,568.617 C506.471,593.201 529.102,579.53 605.5,584.017 C645.26,586.355 685.287,587.6299 722.163,588.4209 " fill="none" id="Kafka-LANS" style="stroke:#181818;stroke-width:0.6999999999999998;"/><polygon fill="#181818" points="249.361,566.314,256.1066,567.7378,252.784,565.5837,254.9381,562.2611,249.361,566.314" style="stroke:#181818;stroke-width:0.6999999999999998;"/><polygon fill="#181818" points="726.362,588.511,720.1235,585.5765,722.8628,588.4359,720.0034,591.1753,726.362,588.511" style="stroke:#181818;stroke-width:0.6999999999999998;"/><text fill="#000000" font-family="sans-serif" font-size="9.1" lengthAdjust="spacing" textLength="80.2166" x="469.35" y="565.7449">Notification Events</text></g><!--link Kafka to PS--><g id="link_Kafka_PS"><path d="M253.2027,562.7027 C270.8217,556.8927 293.734,550.137 317.8,546.217 C478.639,520.009 668.8545,524.6232 756.3055,528.6832 " fill="none" id="Kafka-PS" style="stroke:#181818;stroke-width:0.6999999999999998;"/><polygon fill="#181818" points="249.214,564.018,256.074,564.7042,252.5379,562.9219,254.3202,559.3859,249.214,564.018" style="stroke:#181818;stroke-width:0.6999999999999998;"/><polygon fill="#181818" points="760.501,528.878,754.3376,525.7888,757.0048,528.7157,754.0779,531.3828,760.501,528.878" style="stroke:#181818;stroke-width:0.6999999999999998;"/><text fill="#000000" font-family="sans-serif" font-size="9.1" lengthAdjust="spacing" textLength="68.2501" x="475.3" y="523.7449">Payment Events</text></g><!--link Kafka to HSS--><g id="link_Kafka_HSS"><path d="M253.1277,579.4339 C266.7847,584.8239 281.428,591.241 296.8,600.117 C306.824,605.906 307.979,609.392 317.8,615.517 C367.269,646.38 380.492,653.254 434,676.417 C444.059,680.771 451.1485,683.5466 461.5925,687.2076 " fill="none" id="Kafka-HSS" style="stroke:#181818;stroke-width:0.6999999999999998;"/><polygon fill="#181818" points="249.221,577.892,254.0532,582.8093,252.4766,579.1769,256.109,577.6003,249.221,577.892" style="stroke:#181818;stroke-width:0.6999999999999998;"/><polygon fill="#181818" points="465.556,688.597,460.5369,683.8706,462.253,687.4392,458.6844,689.1553,465.556,688.597" style="stroke:#181818;stroke-width:0.6999999999999998;"/><text fill="#000000" font-family="sans-serif" font-size="9.1" lengthAdjust="spacing" textLength="53.0075" x="339.15" y="612.6449">Issue Events</text></g><!--SRC=[VLNBRjim4BppAmWVYlOGv5uK1HGdSe9QYMebxR6WgRLCc2PLad9g5FttyYMPajBc575coTtPsJM7dS56OiMQlS4rKq0DamBf0nCjKUI8gJosKe0mbJbpm8v0HCC18KADL7Z9cGNZHzQ0eEVuiGPIWqgGWLKVcK1ek0elghCsS5pWtmZRl-59l7ZHe71116dWw0ugK2T6OO69nYz5DQNdX3BE30CzOkOpuesKji86lyCLtKFTSVUHXjnKivWrEm7EE2YZRToZD6p7A75oZIBNsUCij2Hdb_uugt96kmVUkfIwjfLgNEpzF9-DVLiqupitywpbMpdEQBud8qvM8K-gYI5ReY4supP-UixjpGztEE75M_3Idd3Pp48kNPe4FgdwZHVywPJwh8ZGn9jr5f1Wqx1Uisb8FFVidnrqblg5x0x4u_u_XFwCB7ltou0IXFUQQUVUV_GThuY1Lt8ERL_DN6l7pgVtFbyM7u9ZbyMKjPBIFLoGrlQcVF2qLP5vcaqjp26-klhi1WD_n6lPC75TiKPqROfQPrjqgS3cXBssAUhSQ-4DK71sJrskKrxfM0Kv08urfk2zVs93cAtfcT43ZD2D0wjkUsG6zxgZi3cIz3VGCBiKrBMl8yLp1p-rvkfYM9tYeS2CKcWDZkP9u4c5OQ1JGimUjEGMVz2w6z_lI__6u1L_9vpRsb3OT5Fjq-EOazQs7M4Nnffd7KjEGv1_AId3_ASA5CRuScLOdTWDgKv0B-5IYXrhEWM9YWCZwpNKRbZqVYk9gXCyv5P8mTn6xzCROAzHrjMsnQDfl322odUQ4kwC66oI4jP3yIkGEwk-Mz5kRX5oZm-K70pTEmxlDvqdzPnoA5KTUw_gomr1Hc_pSoW3LuQOpchfCQ_Mih2SijFxoJoKyOcLWvNqOetANGU27LFVAwCOdE88XqfSbnmZBb8t65RFqB10oGT2ykCsD7ReN5_Gi2yldDYSSY2aAGRRZRFU3Cn-NVPfvG3rbj03GduduayNAzoTd3M_kjsPWgd0_Q-bf-gKvPlKByiv7BpY9x57_m80]--></g></svg>