<svg xmlns="http://www.w3.org/2000/svg" xmlns:xlink="http://www.w3.org/1999/xlink" contentStyleType="text/css" height="1476px" preserveAspectRatio="none" style="width:1072px;height:1476px;background:#FFFFFF;" version="1.1" viewBox="0 0 1072 1476" width="1072.8px" zoomAndPan="magnify"><defs/><g><!--cluster System--><g id="cluster_System"><path d="M178,593.536 L219.3886,593.536 A3,3 0 0 1 221.3886,595.536 L226.9886,613.5903 L761.2,613.5903 A2,2 0 0 1 763.2,615.5903 L763.2,1053.936 A2,2 0 0 1 761.2,1055.936 L178,1055.936 A2,2 0 0 1 176,1053.936 L176,595.536 A2,2 0 0 1 178,593.536 " fill="none" style="stroke:#000000;stroke-width:1.2000000000000002;"/><line style="stroke:#000000;stroke-width:1.2000000000000002;" x1="176" x2="226.9886" y1="613.5903" y2="613.5903"/><text fill="#000000" font-family="sans-serif" font-size="11.2" font-weight="bold" lengthAdjust="spacing" textLength="40.5886" x="179.2" y="607.1087">System</text></g><!--cluster Core Services--><g id="cluster_Core Services"><path d="M197.2,630.336 L272.2893,630.336 A3,3 0 0 1 274.2893,632.336 L279.8893,650.3903 L742,650.3903 A2,2 0 0 1 744,652.3903 L744,821.936 A2,2 0 0 1 742,823.936 L197.2,823.936 A2,2 0 0 1 195.2,821.936 L195.2,632.336 A2,2 0 0 1 197.2,630.336 " fill="none" style="stroke:#000000;stroke-width:1.2000000000000002;"/><line style="stroke:#000000;stroke-width:1.2000000000000002;" x1="195.2" x2="279.8893" y1="650.3903" y2="650.3903"/><text fill="#000000" font-family="sans-serif" font-size="11.2" font-weight="bold" lengthAdjust="spacing" textLength="74.2893" x="198.4" y="643.9087">Core Services</text></g><!--cluster Support Services--><g id="cluster_Support Services"><path d="M559.2,843.136 L653.1053,843.136 A3,3 0 0 1 655.1053,845.136 L660.7053,863.1903 L717.6,863.1903 A2,2 0 0 1 719.6,865.1903 L719.6,1034.736 A2,2 0 0 1 717.6,1036.736 L559.2,1036.736 A2,2 0 0 1 557.2,1034.736 L557.2,845.136 A2,2 0 0 1 559.2,843.136 " fill="none" style="stroke:#000000;stroke-width:1.2000000000000002;"/><line style="stroke:#000000;stroke-width:1.2000000000000002;" x1="557.2" x2="660.7053" y1="863.1903" y2="863.1903"/><text fill="#000000" font-family="sans-serif" font-size="11.2" font-weight="bold" lengthAdjust="spacing" textLength="93.1053" x="560.4" y="856.7087">Support Services</text></g><!--cluster Admin Management--><g id="cluster_Admin Management"><path d="M232.4,961.536 L347.6972,961.536 A3,3 0 0 1 349.6972,963.536 L355.2972,981.5903 L355.6,981.5903 A2,2 0 0 1 357.6,983.5903 L357.6,1034.736 A2,2 0 0 1 355.6,1036.736 L232.4,1036.736 A2,2 0 0 1 230.4,1034.736 L230.4,963.536 A2,2 0 0 1 232.4,961.536 " fill="none" style="stroke:#000000;stroke-width:1.2000000000000002;"/><line style="stroke:#000000;stroke-width:1.2000000000000002;" x1="230.4" x2="355.2972" y1="981.5903" y2="981.5903"/><text fill="#000000" font-family="sans-serif" font-size="11.2" font-weight="bold" lengthAdjust="spacing" textLength="114.4972" x="233.6" y="975.1087">Admin Management</text></g><!--cluster Databases--><g id="cluster_Databases"><path d="M894.8,884.736 L953.8846,884.736 A3,3 0 0 1 955.8846,886.736 L961.4846,904.7903 L1065.2,904.7903 A2,2 0 0 1 1067.2,906.7903 L1067.2,1229.936 A2,2 0 0 1 1065.2,1231.936 L894.8,1231.936 A2,2 0 0 1 892.8,1229.936 L892.8,886.736 A2,2 0 0 1 894.8,884.736 " fill="none" style="stroke:#000000;stroke-width:1.2000000000000002;"/><line style="stroke:#000000;stroke-width:1.2000000000000002;" x1="892.8" x2="961.4846" y1="904.7903" y2="904.7903"/><text fill="#000000" font-family="sans-serif" font-size="11.2" font-weight="bold" lengthAdjust="spacing" textLength="58.2846" x="896" y="898.3087">Databases</text></g><!--cluster External Services--><g id="cluster_External Services"><path d="M913.6,651.136 L1009.7676,651.136 A3,3 0 0 1 1011.7676,653.136 L1017.3676,671.1903 L1046.4,671.1903 A2,2 0 0 1 1048.4,673.1903 L1048.4,842.736 A2,2 0 0 1 1046.4,844.736 L913.6,844.736 A2,2 0 0 1 911.6,842.736 L911.6,653.136 A2,2 0 0 1 913.6,651.136 " fill="none" style="stroke:#000000;stroke-width:1.2000000000000002;"/><line style="stroke:#000000;stroke-width:1.2000000000000002;" x1="911.6" x2="1017.3676" y1="671.1903" y2="671.1903"/><text fill="#000000" font-family="sans-serif" font-size="11.2" font-weight="bold" lengthAdjust="spacing" textLength="95.3676" x="914.8" y="664.7087">External Services</text></g><!--entity UMS--><g id="elem_UMS"><rect fill="#F1F1F1" height="31.2543" rx="2" ry="2" style="stroke:#181818;stroke-width:0.4000000000000001;" width="154.2859" x="216.8" y="720.336"/><text fill="#000000" font-family="sans-serif" font-size="11.2" lengthAdjust="spacing" textLength="138.2859" x="224.8" y="740.3087">User Management Service</text></g><!--entity FS--><g id="elem_FS"><rect fill="#F1F1F1" height="31.2543" rx="2" ry="2" style="stroke:#181818;stroke-width:0.4000000000000001;" width="101.0301" x="243.6" y="779.536"/><text fill="#000000" font-family="sans-serif" font-size="11.2" lengthAdjust="spacing" textLength="85.0301" x="251.6" y="799.5087">Facilities Service</text></g><!--entity BSS--><g id="elem_BSS"><rect fill="#F1F1F1" height="31.2543" rx="2" ry="2" style="stroke:#181818;stroke-width:0.4000000000000001;" width="171.9706" x="208" y="661.136"/><text fill="#000000" font-family="sans-serif" font-size="11.2" lengthAdjust="spacing" textLength="155.9706" x="216" y="681.1087">Booking &amp; Scheduling Service</text></g><!--entity LANS--><g id="elem_LANS"><rect fill="#F1F1F1" height="31.2543" rx="2" ry="2" style="stroke:#181818;stroke-width:0.4000000000000001;" width="185.6233" x="545.6" y="661.136"/><text fill="#000000" font-family="sans-serif" font-size="11.2" lengthAdjust="spacing" textLength="169.6233" x="553.6" y="681.1087">Live Alerts &amp; Notification Service</text></g><!--entity PS--><g id="elem_PS"><rect fill="#F1F1F1" height="31.2543" rx="2" ry="2" style="stroke:#181818;stroke-width:0.4000000000000001;" width="108.1644" x="584.4" y="741.136"/><text fill="#000000" font-family="sans-serif" font-size="11.2" lengthAdjust="spacing" textLength="92.1644" x="592.4" y="761.1087">Payments Service</text></g><!--entity HSS--><g id="elem_HSS"><rect fill="#F1F1F1" height="31.2543" rx="2" ry="2" style="stroke:#181818;stroke-width:0.4000000000000001;" width="136.9819" x="570" y="933.136"/><text fill="#000000" font-family="sans-serif" font-size="11.2" lengthAdjust="spacing" textLength="120.9819" x="578" y="953.1087">Help &amp; Support Service</text></g><!--entity RS--><g id="elem_RS"><rect fill="#F1F1F1" height="31.2543" rx="2" ry="2" style="stroke:#181818;stroke-width:0.4000000000000001;" width="95.6317" x="590.4" y="873.936"/><text fill="#000000" font-family="sans-serif" font-size="11.2" lengthAdjust="spacing" textLength="79.6317" x="598.4" y="893.9087">Ratings Service</text></g><!--entity LS--><g id="elem_LS"><rect fill="#F1F1F1" height="31.2543" rx="2" ry="2" style="stroke:#181818;stroke-width:0.4000000000000001;" width="101.2093" x="587.6" y="992.336"/><text fill="#000000" font-family="sans-serif" font-size="11.2" lengthAdjust="spacing" textLength="85.2093" x="595.6" y="1012.3087">Location Service</text></g><!--entity AS--><g id="elem_AS"><rect fill="#F1F1F1" height="31.2543" rx="2" ry="2" style="stroke:#181818;stroke-width:0.4000000000000001;" width="90.6029" x="248.8" y="992.336"/><text fill="#000000" font-family="sans-serif" font-size="11.2" lengthAdjust="spacing" textLength="74.6029" x="256.8" y="1012.3087">Admin Service</text></g><!--entity DB_User--><g id="elem_DB_User"><path d="M933.6,1122.336 C933.6,1114.336 980.1223,1114.336 980.1223,1114.336 C980.1223,1114.336 1026.6445,1114.336 1026.6445,1122.336 L1026.6445,1144.7903 C1026.6445,1152.7903 980.1223,1152.7903 980.1223,1152.7903 C980.1223,1152.7903 933.6,1152.7903 933.6,1144.7903 L933.6,1122.336 " fill="#F1F1F1" style="stroke:#181818;stroke-width:0.4000000000000001;"/><path d="M933.6,1122.336 C933.6,1130.336 980.1223,1130.336 980.1223,1130.336 C980.1223,1130.336 1026.6445,1130.336 1026.6445,1122.336 " fill="none" style="stroke:#181818;stroke-width:0.4000000000000001;"/><text fill="#000000" font-family="sans-serif" font-size="11.2" lengthAdjust="spacing" textLength="77.0445" x="941.6" y="1145.5087">User Database</text></g><!--entity DB_Facilities--><g id="elem_DB_Facilities"><path d="M905.6,1188.736 C905.6,1180.736 980.1333,1180.736 980.1333,1180.736 C980.1333,1180.736 1054.6667,1180.736 1054.6667,1188.736 L1054.6667,1211.1903 C1054.6667,1219.1903 980.1333,1219.1903 980.1333,1219.1903 C980.1333,1219.1903 905.6,1219.1903 905.6,1211.1903 L905.6,1188.736 " fill="#F1F1F1" style="stroke:#181818;stroke-width:0.4000000000000001;"/><path d="M905.6,1188.736 C905.6,1196.736 980.1333,1196.736 980.1333,1196.736 C980.1333,1196.736 1054.6667,1196.736 1054.6667,1188.736 " fill="none" style="stroke:#181818;stroke-width:0.4000000000000001;"/><text fill="#000000" font-family="sans-serif" font-size="11.2" lengthAdjust="spacing" textLength="133.0667" x="913.6" y="1211.9087">Service Catalog Database</text></g><!--entity DB_Orders--><g id="elem_DB_Orders"><path d="M930,1055.936 C930,1047.936 979.8766,1047.936 979.8766,1047.936 C979.8766,1047.936 1029.7533,1047.936 1029.7533,1055.936 L1029.7533,1078.3903 C1029.7533,1086.3903 979.8766,1086.3903 979.8766,1086.3903 C979.8766,1086.3903 930,1086.3903 930,1078.3903 L930,1055.936 " fill="#F1F1F1" style="stroke:#181818;stroke-width:0.4000000000000001;"/><path d="M930,1055.936 C930,1063.936 979.8766,1063.936 979.8766,1063.936 C979.8766,1063.936 1029.7533,1063.936 1029.7533,1055.936 " fill="none" style="stroke:#181818;stroke-width:0.4000000000000001;"/><text fill="#000000" font-family="sans-serif" font-size="11.2" lengthAdjust="spacing" textLength="83.7533" x="938" y="1079.1087">Order Database</text></g><!--entity DB_Transactions--><g id="elem_DB_Transactions"><path d="M914.8,923.136 C914.8,915.136 979.931,915.136 979.931,915.136 C979.931,915.136 1045.062,915.136 1045.062,923.136 L1045.062,945.5903 C1045.062,953.5903 979.931,953.5903 979.931,953.5903 C979.931,953.5903 914.8,953.5903 914.8,945.5903 L914.8,923.136 " fill="#F1F1F1" style="stroke:#181818;stroke-width:0.4000000000000001;"/><path d="M914.8,923.136 C914.8,931.136 979.931,931.136 979.931,931.136 C979.931,931.136 1045.062,931.136 1045.062,923.136 " fill="none" style="stroke:#181818;stroke-width:0.4000000000000001;"/><text fill="#000000" font-family="sans-serif" font-size="11.2" lengthAdjust="spacing" textLength="114.262" x="922.8" y="946.3087">Transaction Database</text></g><!--entity DB_Ratings--><g id="elem_DB_Ratings"><path d="M926,989.536 C926,981.536 979.9534,981.536 979.9534,981.536 C979.9534,981.536 1033.9069,981.536 1033.9069,989.536 L1033.9069,1011.9903 C1033.9069,1019.9903 979.9534,1019.9903 979.9534,1019.9903 C979.9534,1019.9903 926,1019.9903 926,1011.9903 L926,989.536 " fill="#F1F1F1" style="stroke:#181818;stroke-width:0.4000000000000001;"/><path d="M926,989.536 C926,997.536 979.9534,997.536 979.9534,997.536 C979.9534,997.536 1033.9069,997.536 1033.9069,989.536 " fill="none" style="stroke:#181818;stroke-width:0.4000000000000001;"/><text fill="#000000" font-family="sans-serif" font-size="11.2" lengthAdjust="spacing" textLength="91.9069" x="934" y="1012.7087">Ratings Database</text></g><!--entity PG--><g id="elem_PG"><rect fill="#F1F1F1" height="31.2543" rx="2" ry="2" style="stroke:#181818;stroke-width:0.4000000000000001;" width="111.0316" x="924.4" y="741.136"/><text fill="#000000" font-family="sans-serif" font-size="11.2" lengthAdjust="spacing" textLength="95.0316" x="932.4" y="761.1087">Payment Gateway</text></g><!--entity FCM--><g id="elem_FCM"><rect fill="#F1F1F1" height="31.2543" rx="2" ry="2" style="stroke:#181818;stroke-width:0.4000000000000001;" width="93.1789" x="933.6" y="681.936"/><text fill="#000000" font-family="sans-serif" font-size="11.2" lengthAdjust="spacing" textLength="77.1789" x="941.6" y="701.9087">Firebase (FCM)</text></g><!--entity GMA--><g id="elem_GMA"><rect fill="#F1F1F1" height="31.2543" rx="2" ry="2" style="stroke:#181818;stroke-width:0.4000000000000001;" width="106.0477" x="926.8" y="800.336"/><text fill="#000000" font-family="sans-serif" font-size="11.2" lengthAdjust="spacing" textLength="90.0477" x="934.8" y="820.3087">Google Maps API</text></g><!--entity Client--><g id="elem_Client"><ellipse cx="27.4695" cy="285.536" fill="#F1F1F1" rx="6.4" ry="6.4" style="stroke:#181818;stroke-width:0.4000000000000001;"/><path d="M27.4695,291.936 L27.4695,313.536 M17.0695,298.336 L37.8695,298.336 M27.4695,313.536 L17.0695,325.536 M27.4695,313.536 L37.8695,325.536 " fill="none" style="stroke:#181818;stroke-width:0.4000000000000001;"/><text fill="#000000" font-family="sans-serif" font-size="11.2" lengthAdjust="spacing" textLength="30.1391" x="12.4" y="338.7087">Client</text></g><!--entity Agency--><g id="elem_Agency"><ellipse cx="27.5855" cy="619.136" fill="#F1F1F1" rx="6.4" ry="6.4" style="stroke:#181818;stroke-width:0.4000000000000001;"/><path d="M27.5855,625.536 L27.5855,647.136 M17.1855,631.936 L37.9855,631.936 M27.5855,647.136 L17.1855,659.136 M27.5855,647.136 L37.9855,659.136 " fill="none" style="stroke:#181818;stroke-width:0.4000000000000001;"/><text fill="#000000" font-family="sans-serif" font-size="11.2" lengthAdjust="spacing" textLength="38.371" x="8.4" y="672.3087">Agency</text></g><!--entity Leader--><g id="elem_Leader"><ellipse cx="27.7495" cy="803.936" fill="#F1F1F1" rx="6.4" ry="6.4" style="stroke:#181818;stroke-width:0.4000000000000001;"/><path d="M27.7495,810.336 L27.7495,831.936 M17.3495,816.736 L38.1495,816.736 M27.7495,831.936 L17.3495,843.936 M27.7495,831.936 L38.1495,843.936 " fill="none" style="stroke:#181818;stroke-width:0.4000000000000001;"/><text fill="#000000" font-family="sans-serif" font-size="11.2" lengthAdjust="spacing" textLength="36.2991" x="9.6" y="857.1087">Leader</text></g><!--entity Agent--><g id="elem_Agent"><ellipse cx="27.6631" cy="486.336" fill="#F1F1F1" rx="6.4" ry="6.4" style="stroke:#181818;stroke-width:0.4000000000000001;"/><path d="M27.6631,492.736 L27.6631,514.336 M17.2631,499.136 L38.0631,499.136 M27.6631,514.336 L17.2631,526.336 M27.6631,514.336 L38.0631,526.336 " fill="none" style="stroke:#181818;stroke-width:0.4000000000000001;"/><text fill="#000000" font-family="sans-serif" font-size="11.2" lengthAdjust="spacing" textLength="31.3263" x="12" y="539.5087">Agent</text></g><!--entity Admin--><g id="elem_Admin"><ellipse cx="27.5639" cy="1085.536" fill="#F1F1F1" rx="6.4" ry="6.4" style="stroke:#181818;stroke-width:0.4000000000000001;"/><path d="M27.5639,1091.936 L27.5639,1113.536 M17.1639,1098.336 L37.9639,1098.336 M27.5639,1113.536 L17.1639,1125.536 M27.5639,1113.536 L37.9639,1125.536 " fill="none" style="stroke:#181818;stroke-width:0.4000000000000001;"/><text fill="#000000" font-family="sans-serif" font-size="11.2" lengthAdjust="spacing" textLength="34.3279" x="10.4" y="1138.7087">Admin</text></g><!--entity Kafka--><g id="elem_Kafka"><path d="M8.8,1243.536 L46.1327,1243.536 C50.1327,1243.536 50.1327,1255.1632 50.1327,1255.1632 C50.1327,1255.1632 50.1327,1266.7903 46.1327,1266.7903 L8.8,1266.7903 C4.8,1266.7903 4.8,1255.1632 4.8,1255.1632 C4.8,1255.1632 4.8,1243.536 8.8,1243.536 " fill="#F1F1F1" style="stroke:#181818;stroke-width:0.4000000000000001;"/><path d="M46.1327,1243.536 C42.1327,1243.536 42.1327,1255.1632 42.1327,1255.1632 C42.1327,1266.7903 46.1327,1266.7903 46.1327,1266.7903 " fill="none" style="stroke:#181818;stroke-width:0.4000000000000001;"/><text fill="#000000" font-family="sans-serif" font-size="11.2" lengthAdjust="spacing" textLength="29.3327" x="8.8" y="1259.5087">Kafka</text></g><!--link Client to UMS--><g id="link_Client_UMS"><path d="M32.712,342.072 C42.536,413.544 66.368,581.656 74.4,591.136 C102.32,624.072 140.584,587.728 166.4,622.336 C171.984,629.824 163.68,699.112 169.6,706.336 C181.352,720.664 194.0432,727.6284 212.0432,732.0604 " fill="none" id="Client-to-UMS" style="stroke:#181818;stroke-width:0.8000000000000002;"/><polygon fill="#181818" points="216.704,733.208,210.4779,728.3794,212.82,732.2517,208.9477,734.5938,216.704,733.208" style="stroke:#181818;stroke-width:0.8000000000000002;"/><text fill="#000000" font-family="sans-serif" font-size="10.4" lengthAdjust="spacing" textLength="65.1561" x="88" y="587.8536">Login/Signup</text></g><!--link Client to BSS--><g id="link_Client_BSS"><path d="M34.624,342.064 C41.072,368.632 53.248,406.456 74.4,433.536 C104.936,472.632 142.696,453.16 166.4,496.736 C172.56,508.064 162.744,601.808 169.6,612.736 C184.24,636.072 205.8922,649.5371 230.3562,659.2731 " fill="none" id="Client-to-BSS" style="stroke:#181818;stroke-width:0.8000000000000002;"/><polygon fill="#181818" points="234.816,661.048,229.3096,655.4125,231.0995,659.5689,226.943,661.3589,234.816,661.048" style="stroke:#181818;stroke-width:0.8000000000000002;"/><text fill="#000000" font-family="sans-serif" font-size="10.4" lengthAdjust="spacing" textLength="63.8664" x="88.8" y="430.2536">Create Order</text></g><!--link Client to LANS--><g id="link_Client_LANS"><path d="M31.92,278.448 C37.792,231.776 51.296,148.432 74.4,130.336 C230.864,7.768 367.504,4.8 521.6,130.336 C607.312,200.16 632.0997,574.2231 636.5557,656.2711 " fill="none" id="Client-to-LANS" style="stroke:#181818;stroke-width:0.8000000000000002;"/><polygon fill="#181818" points="636.816,661.064,639.6208,653.7011,636.5991,657.0699,633.2303,654.0481,636.816,661.064" style="stroke:#181818;stroke-width:0.8000000000000002;"/><text fill="#000000" font-family="sans-serif" font-size="10.4" lengthAdjust="spacing" textLength="101.5873" x="243.6" y="34.2536">Receive Notifications</text></g><!--link Client to PS--><g id="link_Client_PS"><path d="M32.376,278.616 C37.432,253.056 48.832,218.64 74.4,201.536 C157,146.28 449.872,132.752 521.6,201.536 C562.128,240.4 515.84,658.712 545.6,706.336 C555.448,722.088 567.7101,731.2332 584.1261,739.0092 " fill="none" id="Client-to-PS" style="stroke:#181818;stroke-width:0.8000000000000002;"/><polygon fill="#181818" points="588.464,741.064,583.327,735.0898,584.849,739.3517,580.5872,740.8737,588.464,741.064" style="stroke:#181818;stroke-width:0.8000000000000002;"/><text fill="#000000" font-family="sans-serif" font-size="10.4" lengthAdjust="spacing" textLength="72.5921" x="258" y="151.8536">Make Payment</text></g><!--link Client to HSS--><g id="link_Client_HSS"><path d="M42.8,320.816 C67.656,338.536 120.64,374.704 169.6,397.536 C258.864,439.16 295.416,416.672 380,467.136 C454.304,511.464 484.368,522.632 521.6,600.736 C552.136,664.784 501.68,863.4 545.6,919.136 C551.936,927.176 556.1129,931.0544 565.4489,935.3584 " fill="none" id="Client-to-HSS" style="stroke:#181818;stroke-width:0.8000000000000002;"/><polygon fill="#181818" points="569.808,937.368,564.6091,931.4476,566.1754,935.6933,561.9297,937.2597,569.808,937.368" style="stroke:#181818;stroke-width:0.8000000000000002;"/><text fill="#000000" font-family="sans-serif" font-size="10.4" lengthAdjust="spacing" textLength="57.1688" x="265.6" y="394.2536">Raise Ticket</text></g><!--link Client to RS--><g id="link_Client_RS"><path d="M43.048,306.232 C92.376,293.184 256.28,255.968 380,299.936 C456.448,327.104 484.624,342.92 521.6,415.136 C563.072,496.136 501.576,744.296 545.6,823.936 C557.984,846.336 577.4226,860.6667 597.6546,871.5707 " fill="none" id="Client-to-RS" style="stroke:#181818;stroke-width:0.8000000000000002;"/><polygon fill="#181818" points="601.88,873.848,597.0601,867.6152,598.3588,871.9503,594.0237,873.249,601.88,873.848" style="stroke:#181818;stroke-width:0.8000000000000002;"/><text fill="#000000" font-family="sans-serif" font-size="10.4" lengthAdjust="spacing" textLength="73.9441" x="257.2" y="275.8536">Submit Ratings</text></g><!--link Agency to UMS--><g id="link_Agency_UMS"><path d="M33.592,675.72 C43.896,737.944 66.624,870.344 74.4,876.736 C105.992,902.696 137.072,905.224 166.4,876.736 C175.264,868.12 161.808,775.128 169.6,765.536 C181.288,751.152 193.9471,744.1631 211.9551,739.7311 " fill="none" id="Agency-to-UMS" style="stroke:#181818;stroke-width:0.8000000000000002;"/><polygon fill="#181818" points="216.616,738.584,208.8599,737.1974,212.7319,739.5399,210.3894,743.4119,216.616,738.584" style="stroke:#181818;stroke-width:0.8000000000000002;"/><text fill="#000000" font-family="sans-serif" font-size="10.4" lengthAdjust="spacing" textLength="71.4273" x="84.8" y="873.4536">Register/Login</text></g><!--link Agency to FS--><g id="link_Agency_FS"><path d="M33.624,675.696 C38.208,703.888 44.976,746.216 50.4,783.136 C56.16,822.36 44.536,933.848 74.4,959.936 C105.2,986.832 129.712,977.992 166.4,959.936 C231.176,928.04 270.2392,849.8047 285.0632,815.1727 " fill="none" id="Agency-to-FS" style="stroke:#181818;stroke-width:0.8000000000000002;"/><polygon fill="#181818" points="286.952,810.76,281.1769,816.1199,285.378,814.4373,287.0606,818.6383,286.952,810.76" style="stroke:#181818;stroke-width:0.8000000000000002;"/><text fill="#000000" font-family="sans-serif" font-size="10.4" lengthAdjust="spacing" textLength="73.1121" x="84" y="956.6536">Opt-in Services</text></g><!--link Agency to BSS--><g id="link_Agency_BSS"><path d="M46.952,667.984 C54.512,675.896 63.936,683.736 74.4,687.936 C126.376,708.792 186.2552,702.9418 231.7352,693.3578 " fill="none" id="Agency-to-BSS" style="stroke:#181818;stroke-width:0.8000000000000002;"/><polygon fill="#181818" points="236.432,692.368,228.7269,690.7214,232.518,693.1928,230.0466,696.9839,236.432,692.368" style="stroke:#181818;stroke-width:0.8000000000000002;"/><text fill="#000000" font-family="sans-serif" font-size="10.4" lengthAdjust="spacing" textLength="69.3057" x="86" y="684.6536">Accept Orders</text></g><!--link Agency to LANS--><g id="link_Agency_LANS"><path d="M37.104,612.192 C41.44,595.728 46.568,575.232 50.4,556.736 C57.128,524.28 49.152,431 74.4,409.536 C107.336,381.536 364.352,311.072 521.6,415.136 C609.224,473.12 630.7333,609.0748 635.7413,656.2508 " fill="none" id="Agency-to-LANS" style="stroke:#181818;stroke-width:0.8000000000000002;"/><polygon fill="#181818" points="636.248,661.024,638.6701,653.5264,635.8257,657.0463,632.3058,654.202,636.248,661.024" style="stroke:#181818;stroke-width:0.8000000000000002;"/><text fill="#000000" font-family="sans-serif" font-size="10.4" lengthAdjust="spacing" textLength="67.9536" x="260.4" y="357.4536">Receive Alerts</text></g><!--link Agency to HSS--><g id="link_Agency_HSS"><path d="M41.24,612.12 C48.688,598.112 59.576,583.056 74.4,575.136 C134.44,543.056 455.768,574.144 521.6,647.936 C561.88,693.08 507.848,871.856 545.6,919.136 C551.984,927.128 556.1908,930.9949 565.5348,935.2909 " fill="none" id="Agency-to-HSS" style="stroke:#181818;stroke-width:0.8000000000000002;"/><polygon fill="#181818" points="569.896,937.296,564.691,931.3809,566.2617,935.6251,562.0176,937.1958,569.896,937.296" style="stroke:#181818;stroke-width:0.8000000000000002;"/><text fill="#000000" font-family="sans-serif" font-size="10.4" lengthAdjust="spacing" textLength="70.9073" x="258.8" y="559.8536">Resolve Issues</text></g><!--link Agency to PS--><g id="link_Agency_PS"><path d="M36.624,612.304 C40.856,595.776 46.04,575.192 50.4,556.736 C61.792,508.544 35.8,478.952 74.4,447.936 C106.272,422.32 136.288,420.272 166.4,447.936 C172.576,453.608 164.024,479.272 169.6,485.536 C275.728,604.848 411.072,442.28 521.6,557.536 C567.968,605.88 506.96,651.608 545.6,706.336 C556.632,721.952 569.7442,731.1977 586.5042,739.0777 " fill="none" id="Agency-to-PS" style="stroke:#181818;stroke-width:0.8000000000000002;"/><polygon fill="#181818" points="590.848,741.12,585.6938,735.1606,587.2281,739.4181,582.9707,740.9524,590.848,741.12" style="stroke:#181818;stroke-width:0.8000000000000002;"/><text fill="#000000" font-family="sans-serif" font-size="10.4" lengthAdjust="spacing" textLength="56.16" x="266" y="482.2536">View Wallet</text></g><!--link Leader to UMS--><g id="link_Leader_UMS"><path d="M35.504,860.552 C41.936,881.152 53.68,906.432 74.4,919.136 C109.256,940.504 137.184,947.744 166.4,919.136 C172.496,913.16 164.248,772.176 169.6,765.536 C181.232,751.104 193.8752,744.0996 211.8752,739.6676 " fill="none" id="Leader-to-UMS" style="stroke:#181818;stroke-width:0.8000000000000002;"/><polygon fill="#181818" points="216.536,738.52,208.7797,737.1342,212.652,739.4763,210.3099,743.3486,216.536,738.52" style="stroke:#181818;stroke-width:0.8000000000000002;"/><text fill="#000000" font-family="sans-serif" font-size="10.4" lengthAdjust="spacing" textLength="27.248" x="106.8" y="915.8536">Login</text></g><!--link Leader to BSS--><g id="link_Leader_BSS"><path d="M45.792,797.224 C53.392,785.608 63.152,773.064 74.4,763.936 C109.016,735.832 138.704,758.872 166.4,723.936 C171.336,717.704 164.136,712.112 169.6,706.336 C179.912,695.432 188.902,689.7327 203.254,685.0367 " fill="none" id="Leader-to-BSS" style="stroke:#181818;stroke-width:0.8000000000000002;"/><polygon fill="#181818" points="207.816,683.544,199.9779,682.7417,204.0143,684.7879,201.9681,688.8244,207.816,683.544" style="stroke:#181818;stroke-width:0.8000000000000002;"/><text fill="#000000" font-family="sans-serif" font-size="10.4" lengthAdjust="spacing" textLength="68.8897" x="86" y="720.6536">Assign Agents</text></g><!--link Agent to UMS--><g id="link_Agent_UMS"><path d="M36.168,542.832 C45.024,576.576 60.128,626.992 74.4,640.736 C105.264,670.456 139.56,636.136 166.4,669.536 C171.544,675.928 164.24,700.112 169.6,706.336 C181.552,720.208 194.0961,727.0329 211.8721,731.4889 " fill="none" id="Agent-to-UMS" style="stroke:#181818;stroke-width:0.8000000000000002;"/><polygon fill="#181818" points="216.528,732.656,210.3222,727.8013,212.648,731.6834,208.766,734.0093,216.528,732.656" style="stroke:#181818;stroke-width:0.8000000000000002;"/><text fill="#000000" font-family="sans-serif" font-size="10.4" lengthAdjust="spacing" textLength="27.248" x="106.8" y="637.4536">Login</text></g><!--link Agent to BSS--><g id="link_Agent_BSS"><path d="M43.36,512.504 C72.568,516.064 136.912,528.416 166.4,569.536 C172.008,577.36 164.296,604.704 169.6,612.736 C184.976,636.024 207.179,649.5561 231.811,659.3401 " fill="none" id="Agent-to-BSS" style="stroke:#181818;stroke-width:0.8000000000000002;"/><polygon fill="#181818" points="236.272,661.112,230.7618,655.4801,232.5545,659.6354,228.3993,661.4281,236.272,661.112" style="stroke:#181818;stroke-width:0.8000000000000002;"/><text fill="#000000" font-family="sans-serif" font-size="10.4" lengthAdjust="spacing" textLength="59.6232" x="90.8" y="515.0536">View Orders</text></g><!--link Agent to LANS--><g id="link_Agent_LANS"><path d="M31.024,479.248 C35.216,448.184 46.104,401.552 74.4,372.736 C144.024,301.816 446.712,306.6 521.6,371.936 C612.688,451.4 632.1428,605.5355 636.2148,656.1115 " fill="none" id="Agent-to-LANS" style="stroke:#181818;stroke-width:0.8000000000000002;"/><polygon fill="#181818" points="636.6,660.896,639.2119,653.4624,636.279,656.9089,632.8325,653.976,636.6,660.896" style="stroke:#181818;stroke-width:0.8000000000000002;"/><text fill="#000000" font-family="sans-serif" font-size="10.4" lengthAdjust="spacing" textLength="67.9536" x="260.4" y="318.2536">Receive Alerts</text></g><!--link Admin to UMS--><g id="link_Admin_UMS"><path d="M44.976,1081.936 C52.824,1070.152 62.992,1056.968 74.4,1047.136 C109.336,1017.024 142.224,1038.408 166.4,999.136 C173.2,988.08 161.496,775.672 169.6,765.536 C181.248,750.976 194.0085,743.9365 212.1285,739.5205 " fill="none" id="Admin-to-UMS" style="stroke:#181818;stroke-width:0.8000000000000002;"/><polygon fill="#181818" points="216.792,738.384,209.0391,736.9798,212.9057,739.3311,210.5544,743.1978,216.792,738.384" style="stroke:#181818;stroke-width:0.8000000000000002;"/><text fill="#000000" font-family="sans-serif" font-size="10.4" lengthAdjust="spacing" textLength="70.2208" x="85.6" y="995.8536">Manage Users</text></g><!--link Admin to FS--><g id="link_Admin_FS"><path d="M44.968,1104.432 C53.696,1101.352 64.608,1097.568 74.4,1094.336 C115.08,1080.896 140.392,1099.584 166.4,1065.536 C172.232,1057.896 166.632,988.272 169.6,979.136 C192.384,909.048 246.9778,844.3771 274.6898,814.4651 " fill="none" id="Admin-to-FS" style="stroke:#181818;stroke-width:0.8000000000000002;"/><polygon fill="#181818" points="277.952,810.944,270.7113,814.0509,275.2335,813.8783,275.4062,818.4005,277.952,810.944" style="stroke:#181818;stroke-width:0.8000000000000002;"/><text fill="#000000" font-family="sans-serif" font-size="10.4" lengthAdjust="spacing" textLength="90.9169" x="75.2" y="1062.2536">Configure Services</text></g><!--link Admin to AS--><g id="link_Admin_AS"><path d="M45.016,1117.104 C73.88,1127.632 133.344,1143.696 166.4,1112.736 C174.336,1105.304 163.416,1072.872 169.6,1063.936 C187.696,1037.784 216.4502,1024.9068 243.9622,1017.3788 " fill="none" id="Admin-to-AS" style="stroke:#181818;stroke-width:0.8000000000000002;"/><polygon fill="#181818" points="248.592,1016.112,240.8027,1014.9257,244.7338,1017.1677,242.4918,1021.0988,248.592,1016.112" style="stroke:#181818;stroke-width:0.8000000000000002;"/><text fill="#000000" font-family="sans-serif" font-size="10.4" lengthAdjust="spacing" textLength="89.2113" x="76" y="1109.4536">Access Dashboard</text></g><!--link Admin to BSS--><g id="link_Admin_BSS"><path d="M31.328,1078.664 C38.328,1005.792 56.784,830.984 74.4,811.136 C102.576,779.392 140.048,818.808 166.4,785.536 C171.872,778.632 164.008,713.136 169.6,706.336 C179.408,694.4 188.5308,688.2668 203.2348,683.4908 " fill="none" id="Admin-to-BSS" style="stroke:#181818;stroke-width:0.8000000000000002;"/><polygon fill="#181818" points="207.8,682.008,199.9636,681.1888,203.9957,683.2437,201.9407,687.2757,207.8,682.008" style="stroke:#181818;stroke-width:0.8000000000000002;"/><text fill="#000000" font-family="sans-serif" font-size="10.4" lengthAdjust="spacing" textLength="75.8369" x="82.8" y="782.2536">Monitor Orders</text></g><!--link Admin to PS--><g id="link_Admin_PS"><path d="M44.888,1123.008 C53.24,1128.64 63.84,1134.648 74.4,1137.536 C126.696,1151.84 321.856,1164.688 380,1135.136 C473.76,1087.48 475.04,1039.84 521.6,945.536 C538.944,910.416 526.824,895.104 545.6,860.736 C565.016,825.192 595.0225,794.7476 615.7985,775.7876 " fill="none" id="Admin-to-PS" style="stroke:#181818;stroke-width:0.8000000000000002;"/><polygon fill="#181818" points="619.344,772.552,611.8686,775.0417,616.3894,775.2483,616.1828,779.7691,619.344,772.552" style="stroke:#181818;stroke-width:0.8000000000000002;"/><text fill="#000000" font-family="sans-serif" font-size="10.4" lengthAdjust="spacing" textLength="90.8961" x="248.8" y="1131.8536">Audit Transactions</text></g><!--link Admin to HSS--><g id="link_Admin_HSS"><path d="M43.8,1142.192 C65.424,1182.688 109.024,1250.584 169.6,1277.536 C255.04,1315.544 290.872,1305.832 380,1277.536 C453.432,1254.216 482.128,1243.696 521.6,1177.536 C567.288,1100.952 488.856,1047.128 545.6,978.336 C552.056,970.504 556.2377,966.7227 565.5257,962.4587 " fill="none" id="Admin-to-HSS" style="stroke:#181818;stroke-width:0.8000000000000002;"/><polygon fill="#181818" points="569.888,960.456,562.0095,960.5518,566.2528,962.1249,564.6797,966.3682,569.888,960.456" style="stroke:#181818;stroke-width:0.8000000000000002;"/><text fill="#000000" font-family="sans-serif" font-size="10.4" lengthAdjust="spacing" textLength="76.0449" x="256" y="1274.2536">Escalate Tickets</text></g><!--link Admin to LS--><g id="link_Admin_LS"><path d="M38.064,1142.08 C60.808,1214.416 119.536,1387.744 169.6,1419.936 C248.256,1470.512 290.872,1448.232 380,1419.936 C453.432,1396.616 483.216,1386.736 521.6,1319.936 C552.096,1266.864 509.288,1094.808 545.6,1045.536 C555.68,1031.848 567.0947,1024.7173 582.8947,1019.1733 " fill="none" id="Admin-to-LS" style="stroke:#181818;stroke-width:0.8000000000000002;"/><polygon fill="#181818" points="587.424,1017.584,579.5706,1016.9484,583.6496,1018.9084,581.6896,1022.9874,587.424,1017.584" style="stroke:#181818;stroke-width:0.8000000000000002;"/><text fill="#000000" font-family="sans-serif" font-size="10.4" lengthAdjust="spacing" textLength="107.4841" x="240.4" y="1416.6536">View Geofencing Data</text></g><!--link BSS to LS--><g id="link_BSS_LS"><path d="M356.616,692.424 C364.976,696.152 373.056,700.728 380,706.336 C381.72,707.72 543.864,976.968 545.6,978.336 C557.656,987.84 568.2558,992.9311 582.7998,997.3551 " fill="none" id="BSS-to-LS" style="stroke:#181818;stroke-width:0.8000000000000002;"/><polygon fill="#181818" points="587.392,998.752,581.4349,993.5952,583.5651,997.5879,579.5724,999.7182,587.392,998.752" style="stroke:#181818;stroke-width:0.8000000000000002;"/><text fill="#000000" font-family="sans-serif" font-size="10.4" lengthAdjust="spacing" textLength="113.5473" x="408" y="749.4536">Fetch Geolocation Data</text></g><!--link BSS to PS--><g id="link_BSS_PS"><path d="M361.712,692.352 C426.784,707.536 519.6935,729.2215 579.6695,743.2135 " fill="none" id="BSS-to-PS" style="stroke:#181818;stroke-width:0.8000000000000002;"/><polygon fill="#181818" points="584.344,744.304,578.0593,739.5519,580.4486,743.3952,576.6053,745.7845,584.344,744.304" style="stroke:#181818;stroke-width:0.8000000000000002;"/><text fill="#000000" font-family="sans-serif" font-size="10.4" lengthAdjust="spacing" textLength="90.4593" x="419.2" y="702.2536">Confirm Payments</text></g><!--link BSS to LANS--><g id="link_BSS_LANS"><path d="M380.2,676.736 C430.464,676.736 489.256,676.736 540.656,676.736 " fill="none" id="BSS-to-LANS" style="stroke:#181818;stroke-width:0.8000000000000002;"/><polygon fill="#181818" points="545.456,676.736,538.256,673.536,541.456,676.736,538.256,679.936,545.456,676.736" style="stroke:#181818;stroke-width:0.8000000000000002;"/><text fill="#000000" font-family="sans-serif" font-size="10.4" lengthAdjust="spacing" textLength="94.3593" x="417.6" y="673.4536">Notify Order Status</text></g><!--link LANS to FCM--><g id="link_LANS_FCM"><path d="M731.208,682.36 C796.696,686.368 877.1129,691.2912 928.6809,694.4432 " fill="none" id="LANS-to-FCM" style="stroke:#181818;stroke-width:0.8000000000000002;"/><polygon fill="#181818" points="933.472,694.736,926.4806,691.1027,929.4795,694.492,926.0902,697.4908,933.472,694.736" style="stroke:#181818;stroke-width:0.8000000000000002;"/><text fill="#000000" font-family="sans-serif" font-size="10.4" lengthAdjust="spacing" textLength="88.6913" x="784" y="682.2536">Push Notifications</text></g><!--link PS to PG--><g id="link_PS_PG"><path d="M692.696,756.736 C755.912,756.736 855.72,756.736 919.52,756.736 " fill="none" id="PS-to-PG" style="stroke:#181818;stroke-width:0.8000000000000002;"/><polygon fill="#181818" points="924.32,756.736,917.12,753.536,920.32,756.736,917.12,759.936,924.32,756.736" style="stroke:#181818;stroke-width:0.8000000000000002;"/><text fill="#000000" font-family="sans-serif" font-size="10.4" lengthAdjust="spacing" textLength="102.6897" x="776.8" y="753.4536">Process Transactions</text></g><!--link LS to GMA--><g id="link_LS_GMA"><path d="M689.432,1019.992 C744.376,1029.88 831.112,1035.208 880,985.536 C893.008,972.32 878.352,919.04 886.4,902.336 C901.112,871.792 927.7454,849.4427 949.7934,834.3227 " fill="none" id="LS-to-GMA" style="stroke:#181818;stroke-width:0.8000000000000002;"/><polygon fill="#181818" points="953.752,831.608,946.0043,833.041,950.4532,833.8703,949.6239,838.3191,953.752,831.608" style="stroke:#181818;stroke-width:0.8000000000000002;"/><text fill="#000000" font-family="sans-serif" font-size="10.4" lengthAdjust="spacing" textLength="95.1497" x="780.8" y="982.2536">Retrieve Maps Data</text></g><!--link UMS to DB_User--><g id="link_UMS_DB_User"><path d="M363.752,751.576 C369.952,755.288 375.552,759.872 380,765.536 C458.336,865.24 331.888,947.52 407.2,1049.536 C528.96,1214.464 815.8562,1170.7196 928.7682,1145.8716 " fill="none" id="UMS-to-DB_User" style="stroke:#181818;stroke-width:0.8000000000000002;"/><polygon fill="#181818" points="933.456,1144.84,925.7365,1143.2622,929.5495,1145.6997,927.112,1149.5127,933.456,1144.84" style="stroke:#181818;stroke-width:0.8000000000000002;"/><text fill="#000000" font-family="sans-serif" font-size="10.4" lengthAdjust="spacing" textLength="77.0849" x="600" y="1143.0536">Store User Data</text></g><!--link FS to DB_Facilities--><g id="link_FS_DB_Facilities"><path d="M303.824,810.8 C321.304,841.864 359.832,913.888 380,979.136 C401.616,1049.056 360.408,1085.264 407.2,1141.536 C528.792,1287.736 781.4993,1249.803 905.2353,1220.251 " fill="none" id="FS-to-DB_Facilities" style="stroke:#181818;stroke-width:0.8000000000000002;"/><polygon fill="#181818" points="909.904,1219.136,902.1576,1217.6961,906.0134,1220.0652,903.6443,1223.921,909.904,1219.136" style="stroke:#181818;stroke-width:0.8000000000000002;"/><text fill="#000000" font-family="sans-serif" font-size="10.4" lengthAdjust="spacing" textLength="82.1705" x="597.6" y="1227.8536">Manage Services</text></g><!--link BSS to DB_Orders--><g id="link_BSS_DB_Orders"><path d="M363.448,692.336 C369.744,696.048 375.448,700.648 380,706.336 C446.848,789.88 354.568,852.376 407.2,945.536 C445.368,1013.088 472.592,1025.68 545.6,1051.936 C677.792,1099.472 842.7456,1086.4466 925.1456,1075.5266 " fill="none" id="BSS-to-DB_Orders" style="stroke:#181818;stroke-width:0.8000000000000002;"/><polygon fill="#181818" points="929.904,1074.896,922.346,1072.6696,925.9387,1075.4215,923.1868,1079.0142,929.904,1074.896" style="stroke:#181818;stroke-width:0.8000000000000002;"/><text fill="#000000" font-family="sans-serif" font-size="10.4" lengthAdjust="spacing" textLength="76.4505" x="600.4" y="1048.6536">Manage Orders</text></g><!--link PS to DB_Transactions--><g id="link_PS_DB_Transactions"><path d="M669.072,772.336 C731.296,804.84 870.3776,877.4894 938.1536,912.8974 " fill="none" id="PS-to-DB_Transactions" style="stroke:#181818;stroke-width:0.8000000000000002;"/><polygon fill="#181818" points="942.408,915.12,937.5081,908.9498,938.8627,913.2678,934.5446,914.6223,942.408,915.12" style="stroke:#181818;stroke-width:0.8000000000000002;"/><text fill="#000000" font-family="sans-serif" font-size="10.4" lengthAdjust="spacing" textLength="83.1273" x="786.8" y="827.0536">Log Transactions</text></g><!--link RS to DB_Ratings--><g id="link_RS_DB_Ratings"><path d="M686.48,898.288 C711.464,903.408 742.488,910.552 769.6,919.136 C823.104,936.072 834.048,946.912 886.4,967.136 C899.104,972.04 908.3601,975.5061 921.2961,980.2021 " fill="none" id="RS-to-DB_Ratings" style="stroke:#181818;stroke-width:0.8000000000000002;"/><polygon fill="#181818" points="925.808,981.84,920.1321,976.3752,922.0481,980.4751,917.9482,982.3911,925.808,981.84" style="stroke:#181818;stroke-width:0.8000000000000002;"/><text fill="#000000" font-family="sans-serif" font-size="10.4" lengthAdjust="spacing" textLength="74.9217" x="790.8" y="919.0536">Store Feedback</text></g><!--link Kafka to BSS--><g id="link_Kafka_BSS"><path d="M32.7916,1238.6765 C37.6316,1220.1885 45.6,1187.856 50.4,1155.936 C55.336,1123.128 53.288,883.92 74.4,858.336 C101.416,825.6 140.296,866.2 166.4,832.736 C175.04,821.656 160.76,717.256 169.6,706.336 C179.384,694.24 188.5915,688.0407 203.4075,683.2647 " fill="none" id="Kafka-BSS" style="stroke:#181818;stroke-width:0.8000000000000002;"/><polygon fill="#181818" points="31.576,1243.32,36.4951,1237.1651,32.589,1239.4504,30.3038,1235.5443,31.576,1243.32" style="stroke:#181818;stroke-width:0.8000000000000002;"/><polygon fill="#181818" points="207.976,681.792,200.1415,680.9553,204.1689,683.0192,202.105,687.0467,207.976,681.792" style="stroke:#181818;stroke-width:0.8000000000000002;"/><text fill="#000000" font-family="sans-serif" font-size="10.4" lengthAdjust="spacing" textLength="62.5249" x="89.2" y="829.4536">Event Queue</text></g><!--link Kafka to LANS--><g id="link_Kafka_LANS"><path d="M54.2576,1241.0263 C85.6256,1222.8583 138.72,1187.152 166.4,1137.536 C170.96,1129.368 163.488,1123.816 169.6,1116.736 C233.552,1042.68 292.832,1096.384 380,1051.936 C450.128,1016.168 482.624,1013.928 521.6,945.536 C569.944,860.688 491.312,808.304 545.6,727.136 C556.08,711.464 568.7793,702.281 585.3713,694.449 " fill="none" id="Kafka-LANS" style="stroke:#181818;stroke-width:0.8000000000000002;"/><polygon fill="#181818" points="50.104,1243.432,57.9382,1242.5925,53.5653,1241.4272,54.7306,1237.0543,50.104,1243.432" style="stroke:#181818;stroke-width:0.8000000000000002;"/><polygon fill="#181818" points="589.712,692.4,581.835,692.5796,586.0947,694.1075,584.5669,698.3673,589.712,692.4" style="stroke:#181818;stroke-width:0.8000000000000002;"/><text fill="#000000" font-family="sans-serif" font-size="10.4" lengthAdjust="spacing" textLength="91.6761" x="248.4" y="1048.6536">Notification Events</text></g><!--link Kafka to PS--><g id="link_Kafka_PS"><path d="M55.3976,1254.561 C82.8456,1253.697 126.072,1251.2 166.4,1243.136 C329.352,1210.528 419.12,1257.152 521.6,1126.336 C558.144,1079.68 522.128,915.152 545.6,860.736 C561.448,823.992 591.7577,794.2661 613.6937,775.7301 " fill="none" id="Kafka-PS" style="stroke:#181818;stroke-width:0.8000000000000002;"/><polygon fill="#181818" points="50.6,1254.712,57.8971,1257.6839,54.598,1254.5862,57.6958,1251.2871,50.6,1254.712" style="stroke:#181818;stroke-width:0.8000000000000002;"/><polygon fill="#181818" points="617.36,772.632,609.7951,774.8349,614.3047,775.2137,613.9259,779.7233,617.36,772.632" style="stroke:#181818;stroke-width:0.8000000000000002;"/><text fill="#000000" font-family="sans-serif" font-size="10.4" lengthAdjust="spacing" textLength="78.0001" x="255.2" y="1216.6536">Payment Events</text></g><!--link Kafka to HSS--><g id="link_Kafka_HSS"><path d="M37.5478,1270.9469 C45.2918,1283.4749 56.784,1298.784 74.4,1308.736 C111.76,1329.832 126.848,1321.168 169.6,1324.736 C327.04,1337.872 425.072,1400.208 521.6,1275.136 C562.032,1222.752 504.504,1030.192 545.6,978.336 C551.96,970.312 556.1443,966.4402 565.4883,962.1362 " fill="none" id="Kafka-HSS" style="stroke:#181818;stroke-width:0.8000000000000002;"/><polygon fill="#181818" points="35.024,1266.864,36.0878,1274.6709,37.1272,1270.2664,41.5317,1271.3059,35.024,1266.864" style="stroke:#181818;stroke-width:0.8000000000000002;"/><polygon fill="#181818" points="569.848,960.128,561.9696,960.2338,566.2149,961.8015,564.6472,966.0467,569.848,960.128" style="stroke:#181818;stroke-width:0.8000000000000002;"/><text fill="#000000" font-family="sans-serif" font-size="10.4" lengthAdjust="spacing" textLength="60.5801" x="264" y="1321.4536">Issue Events</text></g><!--SRC=[XLR9Rjim4BtxAmWVkXo2t8kYWEB4Jb0xKQscFHQqD9O9owHAKawD8lzU3XUPbDNM9slc3JblbYSriDL42o9PlTEaOX9ApGIVg3tZBPNqG4fnQ0K7hWjzQe0WWFAwWSc4bbf8CckOSVg7h0PUdlp34cW5ClBqgEh0-6JIqd9FQo3JugGq7ARazuIONs-U2Gca07ba9QZWnL-V4fa-Av1aHRa9EA31mwU4AlAyAiP2vhHa3TCCL8AUZu9lX32LgCaRKfGxgBe67-Amcs8qRicEGB86f5Oczb5ejcKbnT8cqSliSJGyfoUaasQOE-Zh92rJqRMjaFf_bRg7faKQATeUV3_EOMtovNMQmtgShHZZDfwkRNxKih-aws3nULauxpKQdLkgwOQgC-lA6_ne1ByzuVRc1ne7E7y7cHbB8-gBaFEy30AVP3LoWxKEeLybvOhQrRe8Y7p3iD21OOYtOoL-Tj0Pv6UwtLFhjl-Y2jtzqY0vRIxcutBSo89gUA4dDssB8MfkrC7czMu-MxrtIpDR3L4B8Omwc0QtfcNvWuKjLXdc-jQB1NdW9gT0sTkkhZxXnf8FP2bgngyBLlEkZRrcrOnt9i5aIMoPOo-kad6leGJSlNZbaZjoHAte7eXd7JllxHLhoWpBhwpSG-9TexFeDWUcIMY18UL4BoNbRMTIQwYPKJbvRTd5_ZcwdrfzTPxt9DxHpieIMatyT4Nk0M-dEJ70Sm8b6kD_KAfBpxS5-SRWXNodJMCO6qfEkbDAtZReKspscIfbMkS4lw-FlYpFHSiZgpl99XKnrlyWZFTOoKZliQRpFKvs2Af0xBGjc0c-PNKNlNCYH1Pwe70RrMuZgAmYlqju9JZ35rp8kNVR6cTTPGOdMVSpmdNfJfMqmV5smnS3bdr55Y2sfdlu9a9XGEf1mnBoc5CVEGTTxZ2q2LfjOmCcxoiW3s4neXDSoUrEdHmxKcYgErDtwxD5dAqC9k_KRh1ykRzYWMufR0sJAYmTmAY4xQkM38vUGGB1e80fGsmgHdfXn-tK-D7GI_zatWEYrtu_1tsZ0z5UlyyOtyky1yIfkz5DsQnxP93laDOSeDeONKP2LgPJDixqyJnETqUS-I-eyB4pxaRugB3Gv0ZRqI3ibsutRrODWlSF]--></g></svg>